<svg width="50" height="50" viewBox="0 0 50 50" fill="none" xmlns="http://www.w3.org/2000/svg">
<g clip-path="url(#clip0)">
<path d="M4.34619 15.5664C4.67823 15.8789 5.1958 15.8789 5.52784 15.5664C10.6157 10.4297 17.5493 7.53906 24.7857 7.53906C32.022 7.53906 38.9556 10.4297 44.0435 15.5664C44.1997 15.7227 44.4146 15.8105 44.6392 15.8105C44.8638 15.8105 45.0786 15.7227 45.2349 15.5664L49.3462 11.4258C49.6685 11.1035 49.6685 10.5762 49.3462 10.2539C42.8521 3.69141 34.0142 0 24.7954 0C15.5767 0 6.72901 3.69141 0.244629 10.2441C-0.0776368 10.5664 -0.0776368 11.0938 0.244629 11.416L4.34619 15.5664ZM24.7954 1.66992C33.2915 1.65039 41.4654 4.94141 47.5689 10.8496L44.6294 13.7988C33.5161 3.22266 16.065 3.22266 4.95166 13.7988L2.01221 10.8398C8.12549 4.94141 16.2896 1.65039 24.7954 1.66992Z" fill="#4546A3" fill-opacity="0.6"/>
<path d="M36.4258 24.082C36.6504 24.082 36.8555 23.9941 37.0215 23.8379L41.1328 19.707C41.4551 19.3848 41.4551 18.8574 41.1328 18.5352C37.5195 14.9023 32.8027 12.5781 27.7246 11.9336L27.627 11.4648C27.3438 10.127 26.1719 9.17969 24.8047 9.17969C23.4375 9.17969 22.2656 10.127 21.9824 11.4648L21.875 11.9434C16.7969 12.5977 12.0801 14.9219 8.4668 18.5449C8.14453 18.8672 8.14453 19.3945 8.4668 19.7168L12.5781 23.8476C12.7344 24.0039 12.9492 24.0918 13.1738 24.0918C13.3984 24.0918 13.6035 24.0039 13.7695 23.8476C15.5469 22.0605 17.7344 20.7226 20.1367 19.9707L16.3867 37.2461C16.377 37.2754 16.3672 37.3047 16.3672 37.334L16.0254 38.9551C15.1855 42.6465 16.7285 46.4648 19.8926 48.5351C23.0566 50.6054 27.1777 50.4883 30.2246 48.2422C33.0664 46.0742 34.3848 42.4414 33.6035 38.9551L33.2617 37.334C33.252 37.3047 33.252 37.2851 33.2422 37.2558L29.4922 19.9805C31.8945 20.7324 34.082 22.0605 35.8594 23.8574C35.9863 23.9941 36.2012 24.082 36.4258 24.082ZM13.1738 22.0801L10.2344 19.1309C13.3594 16.2305 17.2754 14.3262 21.4844 13.6621L20.5176 18.125C17.7832 18.8086 15.2539 20.1758 13.1738 22.0801ZM31.6211 37.7246L31.9434 39.2871C32.6465 42.3047 31.3867 45.4297 28.7988 47.1289C26.2109 48.8281 22.8418 48.7304 20.3516 46.8945C18.0371 45.1074 16.9629 42.1387 17.627 39.2871L17.9492 37.7344C17.959 37.7051 17.9688 37.6855 17.9688 37.6562L22.0313 18.9551L23.584 11.8066C23.7012 11.2402 24.1992 10.8398 24.7852 10.8398C25.3613 10.8398 25.8594 11.25 25.9766 11.8066L27.5293 18.9551L31.5918 37.6562C31.6016 37.6758 31.6113 37.6953 31.6211 37.7246ZM28.0957 13.6621C32.3047 14.3262 36.2305 16.2305 39.3457 19.1309L36.4063 22.0801C34.3262 20.1758 31.7969 18.8086 29.0625 18.1152L28.0957 13.6621Z" fill="#4546A3" fill-opacity="0.6"/>
<path d="M24.7949 36.6699C22.4902 36.6699 20.625 38.5352 20.625 40.8398C20.625 43.1445 22.4902 45.0098 24.7949 45.0098C27.0996 45.0098 28.9648 43.1445 28.9648 40.8398C28.9551 38.5352 27.0898 36.6699 24.7949 36.6699ZM24.7949 43.3301C23.418 43.3301 22.2949 42.207 22.2949 40.8301C22.2949 39.4531 23.418 38.3301 24.7949 38.3301C26.1719 38.3301 27.2949 39.4531 27.2949 40.8301C27.2851 42.2168 26.1719 43.3301 24.7949 43.3301Z" fill="#4546A3" fill-opacity="0.6"/>
</g>
<defs>
<clipPath id="clip0">
<rect width="49.5801" height="50" fill="white"/>
</clipPath>
</defs>
</svg>
