<svg width="55" height="55" viewBox="0 0 55 55" fill="none" xmlns="http://www.w3.org/2000/svg">
<g clip-path="url(#clip0)">
<path d="M4.78052 17.123C5.14575 17.4668 5.71509 17.4668 6.08033 17.123C11.677 11.4727 19.304 8.29297 27.2639 8.29297C35.2239 8.29297 42.8509 11.4727 48.4475 17.123C48.6194 17.2949 48.8557 17.3916 49.1028 17.3916C49.3499 17.3916 49.5862 17.2949 49.7581 17.123L54.2805 12.5684C54.635 12.2139 54.635 11.6338 54.2805 11.2793C47.137 4.06055 37.4153 0 27.2747 0C17.134 0 7.40162 4.06055 0.268799 11.2686C-0.0856934 11.623 -0.0856934 12.2031 0.268799 12.5576L4.78052 17.123ZM27.2747 1.83691C36.6204 1.81543 45.6116 5.43555 52.3255 11.9346L49.0921 15.1787C36.8675 3.54492 17.6712 3.54492 5.44654 15.1787L2.21314 11.9238C8.93775 5.43555 17.9182 1.81543 27.2747 1.83691Z" fill="#4546A3" fill-opacity="0.6"/>
<path d="M40.0684 26.4902C40.3154 26.4902 40.541 26.3935 40.7236 26.2217L45.2461 21.6777C45.6006 21.3232 45.6006 20.7432 45.2461 20.3887C41.2715 16.3926 36.083 13.8359 30.4971 13.127L30.3897 12.6113C30.0781 11.1396 28.7891 10.0977 27.2852 10.0977C25.7813 10.0977 24.4922 11.1396 24.1807 12.6113L24.0625 13.1377C18.4766 13.8574 13.2881 16.4141 9.31348 20.3994C8.95898 20.7539 8.95898 21.334 9.31348 21.6885L13.8359 26.2324C14.0078 26.4043 14.2441 26.501 14.4912 26.501C14.7383 26.501 14.9639 26.4043 15.1465 26.2324C17.1016 24.2666 19.5078 22.7949 22.1504 21.9678L18.0254 40.9707C18.0146 41.0029 18.0039 41.0351 18.0039 41.0674L17.6279 42.8506C16.7041 46.9111 18.4014 51.1113 21.8818 53.3886C25.3623 55.666 29.8955 55.5371 33.2471 53.0664C36.373 50.6816 37.8232 46.6855 36.9639 42.8506L36.5879 41.0674C36.5772 41.0351 36.5771 41.0137 36.5664 40.9814L32.4414 21.9785C35.084 22.8057 37.4902 24.2666 39.4453 26.2432C39.585 26.3935 39.8213 26.4902 40.0684 26.4902ZM14.4912 24.2881L11.2578 21.0439C14.6953 17.8535 19.0029 15.7588 23.6328 15.0283L22.5693 19.9375C19.5615 20.6894 16.7793 22.1934 14.4912 24.2881ZM34.7832 41.497L35.1377 43.2158C35.9111 46.5351 34.5254 49.9726 31.6787 51.8418C28.832 53.7109 25.126 53.6035 22.3867 51.584C19.8408 49.6181 18.6592 46.3525 19.3896 43.2158L19.7441 41.5078C19.7549 41.4756 19.7656 41.4541 19.7656 41.4219L24.2344 20.8506L25.9424 12.9873C26.0713 12.3643 26.6191 11.9238 27.2637 11.9238C27.8975 11.9238 28.4453 12.375 28.5742 12.9873L30.2822 20.8506L34.751 41.4219C34.7617 41.4433 34.7725 41.4648 34.7832 41.497ZM30.9053 15.0283C35.5352 15.7588 39.8535 17.8535 43.2803 21.0439L40.0469 24.2881C37.7588 22.1934 34.9766 20.6894 31.9688 19.9268L30.9053 15.0283Z" fill="#4546A3" fill-opacity="0.6"/>
<path d="M27.2744 40.3369C24.7393 40.3369 22.6875 42.3887 22.6875 44.9238C22.6875 47.459 24.7393 49.5107 27.2744 49.5107C29.8096 49.5107 31.8613 47.459 31.8613 44.9238C31.8506 42.3887 29.7988 40.3369 27.2744 40.3369ZM27.2744 47.6631C25.7598 47.6631 24.5244 46.4277 24.5244 44.9131C24.5244 43.3984 25.7598 42.1631 27.2744 42.1631C28.7891 42.1631 30.0244 43.3984 30.0244 44.9131C30.0137 46.4385 28.7891 47.6631 27.2744 47.6631Z" fill="#4546A3" fill-opacity="0.6"/>
</g>
<defs>
<clipPath id="clip0">
<rect width="54.5381" height="55" fill="white"/>
</clipPath>
</defs>
</svg>
