<svg width="50" height="50" viewBox="0 0 50 50" fill="none" xmlns="http://www.w3.org/2000/svg">
<g clip-path="url(#clip0)">
<path d="M42.2745 3.41343e-05C40.4916 -0.00606806 38.8039 0.806286 37.6971 2.20445C36.5903 3.60223 36.1865 5.43098 36.6014 7.16515C34.1941 5.68155 31.111 5.88483 28.9191 7.67163L23.1888 12.3272L13.8574 7.88254L14.2807 7.03777C14.4863 6.62587 14.3193 6.12549 13.9074 5.91954C13.4955 5.71397 12.9951 5.88102 12.7891 6.29292L12.3502 7.16515L9.72317 5.91535C9.452 5.76126 9.11753 5.77118 8.85628 5.94166C8.59503 6.11214 8.45086 6.41382 8.48252 6.72427C8.51417 7.03433 8.71631 7.30092 9.00692 7.41496L11.6046 8.65218L11.1187 9.62281C10.9131 10.0347 11.0801 10.5355 11.492 10.741C11.9039 10.9466 12.4043 10.7796 12.6103 10.3677L13.1099 9.36804L21.7555 13.4889L20.3002 14.6712C19.7925 15.0858 19.3631 15.5881 19.0328 16.1541C17.8677 18.609 18.677 21.5472 20.9348 23.0591L28.8501 28.1281L20.6377 31.7799C19.2708 32.3683 18.4363 33.7669 18.5671 35.249L8.13279 28.8863C7.8784 28.7276 7.5588 28.7177 7.29526 28.8603C7.03172 29.003 6.86506 29.2761 6.85857 29.5754C6.85247 29.8752 7.00731 30.1548 7.26475 30.3085L37.868 48.9713C40.3039 50.4693 43.4092 50.3206 45.6906 48.5964C46.0587 48.3202 46.133 47.7977 45.8569 47.4297C45.5812 47.0617 45.0587 46.9869 44.6906 47.263C42.953 48.5742 40.59 48.6871 38.7353 47.5479L23.0504 37.982C23.1045 37.961 23.1629 37.9518 23.217 37.9278L34.9363 32.7162C37.2509 31.6731 38.3165 28.9786 37.3421 26.6342C36.9805 25.7658 36.3608 25.0289 35.5667 24.524L29.3081 20.1083L31.4744 19.0251L34.4046 21.0629L36.9874 22.8619C38.2509 23.7684 39.9649 23.7166 41.1716 22.7353L44.0041 24.0823C44.273 24.2105 44.5896 24.1853 44.8348 24.0163C45.08 23.8478 45.2166 23.561 45.1929 23.2643C45.1696 22.9672 44.9893 22.7055 44.7208 22.5778L42.1269 21.3428C42.3249 20.8199 42.3859 20.2555 42.3047 19.7025C42.1651 18.7994 41.6624 17.9927 40.913 17.4695L38.6918 15.9275L38.942 15.8749C39.8413 15.6804 40.4126 14.794 40.2181 13.8947L39.7185 11.5908C39.6735 11.3825 39.6033 11.1834 39.54 10.9817C41.6834 12.1213 44.3081 11.8139 46.1304 10.2105C47.9526 8.60679 48.5911 6.04235 47.7333 3.77157C46.876 1.50117 44.7017 -0.00111003 42.2745 3.41343e-05V3.41343e-05ZM39.9569 18.836C40.3325 19.0972 40.5842 19.5019 40.6529 19.9546C40.7212 20.4069 40.6006 20.868 40.3192 21.2288C39.7173 21.9233 38.683 22.0392 37.942 21.4954L35.9191 20.0873L34.6979 19.2376L32.0168 17.373H32.0126L31.2486 16.8413C30.902 16.6007 30.6594 16.2368 30.5705 15.8242L30.2513 14.3436C30.1571 13.9115 30.2387 13.4596 30.4782 13.0877C30.7174 12.7159 31.0946 12.4542 31.5267 12.3608L33.2174 11.995C33.667 11.8978 33.9531 11.4546 33.8558 11.005C33.7589 10.5549 33.3154 10.2689 32.8657 10.3661L31.1754 10.7319C29.3776 11.1224 28.2349 12.894 28.6209 14.6926L28.9397 16.1739C29.0889 16.8467 29.4432 17.4561 29.9538 17.9187L28.2452 18.7742C28.1472 18.8234 28.0599 18.8909 27.9878 18.9733C27.6693 19.3413 27.5275 19.8295 27.5995 20.3108C27.6655 20.7768 27.9291 21.1922 28.3226 21.4504L34.643 25.9111C35.1636 26.2368 35.5709 26.7154 35.8093 27.2818C36.4347 28.7886 35.7498 30.5201 34.262 31.1906L22.5397 36.4088C22.1213 36.5945 21.6453 36.6002 21.2227 36.4244C20.8002 36.2486 20.4687 35.9068 20.3059 35.4789C20.0233 34.6025 20.463 33.6563 21.315 33.3069L29.5274 29.6502C30.0869 29.4011 30.4645 28.8645 30.5107 28.2536C30.5568 27.6426 30.2639 27.0556 29.7479 26.725L21.833 21.6563C20.3101 20.6178 19.746 18.6396 20.4924 16.9538C20.7189 16.5766 21.0096 16.2418 21.3517 15.9649L29.9699 8.96644C31.9554 7.34402 34.8482 7.49276 36.6567 9.31045C37.3794 10.032 37.8779 10.9474 38.0923 11.9458L38.5919 14.2494L37.4096 14.4996C36.9225 14.6037 36.5434 14.9878 36.4458 15.4763C36.3482 15.9653 36.5499 16.4653 36.9599 16.749L39.9569 18.836ZM42.2745 9.99771C39.974 9.99771 38.1087 8.13273 38.1087 5.8322C38.1087 3.5313 39.974 1.66631 42.2745 1.66631C44.5751 1.66631 46.4404 3.5313 46.4404 5.8322C46.4374 8.13158 44.5739 9.99504 42.2745 9.99771V9.99771Z" fill="#4546A3" fill-opacity="0.5"/>
<path d="M9.36508 23.3283C9.73693 23.3286 10.0638 23.0827 10.1668 22.7253C10.2693 22.3679 10.1229 21.9858 9.80749 21.7886L3.14237 17.6227C2.75107 17.379 2.2362 17.4984 1.99249 17.8893C1.7484 18.2806 1.86778 18.7955 2.25908 19.0392L8.9242 23.2051C9.05692 23.2863 9.20947 23.329 9.36508 23.3283Z" fill="#4546A3" fill-opacity="0.5"/>
<path d="M8.09048 19.0358L14.7556 23.2017C15.1465 23.4454 15.6614 23.326 15.9051 22.9351C16.1492 22.5438 16.0298 22.0293 15.6385 21.7852L8.97339 17.6197C8.58247 17.3756 8.0676 17.495 7.82351 17.8863C7.57981 18.2772 7.69918 18.7921 8.09048 19.0358Z" fill="#4546A3" fill-opacity="0.5"/>
</g>
<defs>
<clipPath id="clip0">
<rect width="50" height="50" fill="white"/>
</clipPath>
</defs>
</svg>
