<svg width="51" height="50" viewBox="0 0 51 50" fill="none" xmlns="http://www.w3.org/2000/svg">
<g clip-path="url(#clip0)">
<path d="M36.6282 21.9867C36.384 21.3811 35.7003 21.0881 35.0947 21.3225C34.4891 21.5667 34.1961 22.2504 34.4305 22.856C35.0263 24.37 35.3291 25.9718 35.3291 27.6226C35.3291 34.7626 29.5174 40.5743 22.3774 40.5743C15.2373 40.5743 9.41586 34.7626 9.41586 27.6226C9.41586 20.4825 15.2373 14.661 22.3871 14.661C24.0379 14.661 25.6397 14.9638 27.1635 15.5694C27.7691 15.8136 28.4528 15.5108 28.697 14.9052C28.9412 14.2996 28.6384 13.6159 28.0328 13.3717C26.2356 12.6587 24.3407 12.2973 22.3871 12.2973C13.9382 12.2973 7.07166 19.1639 7.07166 27.6128C7.07166 36.0617 13.9382 42.9283 22.3871 42.9283C30.8361 42.9283 37.7026 36.0617 37.7026 27.6128C37.7026 25.6691 37.3412 23.7742 36.6282 21.9867Z" fill="#4546A3" fill-opacity="0.5"/>
<path d="M43.9051 21.4495C43.7292 20.8244 43.0748 20.463 42.4497 20.6388C41.8246 20.8146 41.4632 21.4691 41.639 22.0942C42.1469 23.8816 42.4106 25.7375 42.4106 27.6128C42.4106 38.6501 33.4245 47.6363 22.3872 47.6363C11.3499 47.6363 2.36374 38.6501 2.36374 27.6128C2.36374 16.5755 11.3499 7.58939 22.3872 7.58939C24.2626 7.58939 26.1281 7.85311 27.9156 8.36102C28.5407 8.53684 29.1952 8.17544 29.371 7.55032C29.5468 6.9252 29.1854 6.27077 28.5603 6.09496C26.5579 5.51867 24.4774 5.22565 22.3774 5.22565C10.041 5.23541 0 15.2764 0 27.6128C0 39.9492 10.041 50 22.3872 50C34.7333 50 44.7744 39.959 44.7744 27.6128C44.7646 25.5226 44.4813 23.4421 43.9051 21.4495Z" fill="#4546A3" fill-opacity="0.5"/>
<path d="M30.6017 26.89C30.5431 26.2454 29.9668 25.7667 29.3222 25.8156C28.6775 25.8742 28.1891 26.4505 28.2478 27.0951C28.2673 27.2612 28.2673 27.437 28.2673 27.603C28.2673 30.8459 25.6301 33.4929 22.3775 33.4929C19.1346 33.4929 16.4876 30.8556 16.4876 27.603C16.4876 24.3602 19.1249 21.7132 22.3775 21.7132C22.563 21.7132 22.7389 21.723 22.9049 21.7328C23.5496 21.7914 24.1259 21.3128 24.1845 20.6681C24.2431 20.0234 23.7645 19.4472 23.1198 19.3886C22.8756 19.369 22.6314 19.3593 22.3775 19.3593C17.8258 19.3593 14.1337 23.0611 14.1337 27.603C14.1337 32.1547 17.8356 35.8468 22.3775 35.8468C26.9291 35.8468 30.6213 32.1449 30.6213 27.603C30.631 27.3784 30.6213 27.1342 30.6017 26.89Z" fill="#4546A3" fill-opacity="0.5"/>
<path d="M49.8242 7.93127C49.453 7.04242 48.6032 6.47591 47.646 6.47591H43.5339V2.36378C43.5339 1.40656 42.9576 0.547015 42.0785 0.185616C41.1897 -0.18555 40.1836 0.0195679 39.5097 0.693528L32.6333 7.56987C31.9691 8.23406 31.5979 9.12291 31.5979 10.0704V16.7514L22.0062 26.3431C21.5472 26.8021 21.5472 27.5542 22.0062 28.0133C22.2407 28.2477 22.5337 28.3552 22.8365 28.3552C23.1393 28.3552 23.4421 28.238 23.6667 28.0133L33.2584 18.4216H39.9394C40.8869 18.4216 41.7757 18.0504 42.4399 17.3862L49.3163 10.5099C49.9902 9.82617 50.1953 8.82011 49.8242 7.93127ZM33.9519 10.0704C33.9519 9.7578 34.0789 9.455 34.2938 9.24012L41.1701 2.36378V7.1694L33.9519 14.3876V10.0704ZM40.7794 15.7062C40.5645 15.9211 40.252 16.0481 39.9492 16.0481H35.6319L42.8501 8.82988H47.6558L40.7794 15.7062Z" fill="#4546A3" fill-opacity="0.5"/>
</g>
<defs>
<clipPath id="clip0">
<rect width="50.0098" height="50" fill="white"/>
</clipPath>
</defs>
</svg>
