<svg width="60" height="51" viewBox="0 0 60 51" fill="none" xmlns="http://www.w3.org/2000/svg">
<g clip-path="url(#clip0)">
<path d="M58.994 50.2131C58.6829 50.436 58.2978 50.4954 57.9276 50.3765L19.5659 37.7762H12.2343C5.49505 37.7762 0 32.2785 0 25.5028C0 18.7272 5.49505 13.2294 12.2343 13.2294H19.5511L57.9127 0.495403C58.0312 0.450826 58.1645 0.435968 58.283 0.435968C58.5348 0.435968 58.7718 0.510262 58.9792 0.658851C59.2902 0.881733 59.4679 1.23835 59.4679 1.62468V49.2473C59.4828 49.6336 59.305 49.9902 58.994 50.2131ZM11.0493 15.6811C6.16156 16.2755 2.36983 20.4508 2.36983 25.5177C2.36983 30.5846 6.16156 34.7599 11.0493 35.3542V15.6811ZM18.5587 30.9114V15.6068H13.4192V35.3988H18.5587V30.9114ZM57.1129 3.25915L20.9286 15.2651V18.9352L57.1129 12.2933V3.25915ZM57.1129 14.7005L20.9286 21.3424V24.4479H57.1129V14.7005ZM57.1129 26.8401H20.9286V29.9159L57.1129 36.3201V26.8401ZM57.1129 38.7272L20.9286 32.323V35.7257L57.1129 47.6128V38.7272Z" fill="#4546A3" fill-opacity="0.5"/>
<path d="M9.16828 20.1971C7.36129 21.3412 6.28005 23.2877 6.28005 25.4274C6.28005 26.0812 5.74684 26.6161 5.09513 26.6161C4.44343 26.6161 3.91022 26.0812 3.91022 25.4274C3.91022 22.4705 5.40617 19.7662 7.8945 18.1763C8.08705 18.0574 8.30922 17.998 8.53139 17.998C8.9313 17.998 9.3164 18.1911 9.53857 18.5477C9.87923 19.1124 9.71631 19.8405 9.16828 20.1971Z" fill="#4546A3" fill-opacity="0.5"/>
<path d="M5.53948 28.2209C5.73203 28.102 5.93939 28.0425 6.14675 28.0425C6.54666 28.0425 6.94657 28.2506 7.16874 28.622C7.68714 29.4839 8.4129 30.2119 9.27196 30.732C9.8348 31.0737 10.0125 31.8018 9.67187 32.3665C9.33121 32.9311 8.60545 33.1094 8.04261 32.7677C6.8577 32.0544 5.85052 31.044 5.13957 29.8553C4.79891 29.2907 4.97664 28.5626 5.53948 28.2209Z" fill="#4546A3" fill-opacity="0.5"/>
</g>
<defs>
<clipPath id="clip0">
<rect width="59.4828" height="50" fill="white" transform="matrix(1 0 0 -1 0 50.4348)"/>
</clipPath>
</defs>
</svg>
