<svg width="50" height="50" viewBox="0 0 50 50" fill="none" xmlns="http://www.w3.org/2000/svg">
<g clip-path="url(#clip0)">
<path d="M25 0C11.2468 0 0 11.2468 0 25C0 26.6067 0.128535 28.1491 0.449871 29.6915L0.385604 29.8201C0.449871 29.8843 0.449871 29.8843 0.514139 29.9486C2.82776 41.3882 12.9177 50.0643 25.0643 50.0643C38.8817 50.0643 50.0643 38.8175 50.0643 25.0643C50.0643 11.3111 38.8175 0 25 0ZM46.3368 16.1954C46.2725 24.3573 39.0103 26.0925 35.9897 26.4139C38.4961 17.6735 37.7892 9.2545 37.2751 5.46272C41.2596 8.03342 44.473 11.7609 46.3368 16.1954ZM35.09 4.30591C35.5398 6.491 37.0823 16.2596 33.9974 26.3496C28.1491 24.8072 27.3136 20.5013 26.2211 14.7172C25.4499 10.7969 24.6144 6.36247 21.9152 2.18509C22.9434 2.05656 23.9717 1.99229 25.0643 1.99229C28.599 1.99229 32.0051 2.82776 35.09 4.30591ZM19.7943 2.57069C22.6864 6.61954 23.5218 11.1183 24.2931 15.0386C25.3856 20.8226 26.4139 26.2853 33.419 28.1491C32.9049 29.563 32.3265 30.9769 31.5553 32.3907C17.0951 25.4499 8.22622 14.2031 6.2982 11.5681C9.51157 7.13368 14.2674 3.85604 19.7943 2.57069ZM5.14139 13.3676C7.84062 16.9023 16.6452 27.4422 30.527 34.1902C30.0129 35.09 29.3702 35.9897 28.7275 36.8252C24.9357 34.9614 21.3368 34.6401 17.9306 34.383C13.1748 33.9974 8.22622 33.5476 2.24936 28.856C2.05656 27.635 1.92802 26.3496 1.92802 25C1.99229 20.7584 3.1491 16.7738 5.14139 13.3676ZM2.9563 31.8123C8.48329 35.5398 13.1748 35.9254 17.7378 36.3111C21.0154 36.5681 24.1645 36.8252 27.4422 38.3676C24.8072 41.5167 21.2725 44.2802 16.7738 46.5296C10.2185 44.0231 5.07712 38.5604 2.9563 31.8123ZM19.473 47.365C23.5861 45.0514 26.7995 42.2879 29.3059 39.2673C30.3342 39.8458 32.455 41.1954 32.9691 43.1877C33.2905 44.3445 32.9692 45.6298 32.1337 46.9152C29.8843 47.6221 27.5064 48.072 25 48.072C23.1362 48.072 21.2725 47.8149 19.473 47.365ZM34.7686 45.8869C35.09 44.7943 35.1542 43.7018 34.8329 42.6735C34.126 40.1671 31.8766 38.5604 30.527 37.7249C31.1697 36.8252 31.8123 35.9254 32.3265 34.9614C35.7969 36.5039 39.5244 37.7892 43.509 38.6889C41.2596 41.7738 38.2391 44.2159 34.7686 45.8869ZM44.7301 36.9537C40.617 36.1183 36.8252 34.7686 33.3548 33.2262C34.1902 31.6195 34.8329 30.0129 35.4113 28.4704C37.1465 28.3419 41.9666 27.6992 45.2442 24.3573C46.3368 23.2648 47.1722 21.9152 47.6864 20.437C48.0077 21.9152 48.1362 23.4576 48.1362 25C48.072 29.3702 46.8509 33.4833 44.7301 36.9537Z" fill="#4546A3" fill-opacity="0.5"/>
</g>
<defs>
<clipPath id="clip0">
<rect width="50" height="50" fill="white"/>
</clipPath>
</defs>
</svg>
