<svg width="60" height="52" viewBox="0 0 60 52" fill="none" xmlns="http://www.w3.org/2000/svg">
<g clip-path="url(#clip0)">
<path d="M59.2266 43.418L34.6172 2.60156C33.6446 0.996094 31.875 0 30 0C28.125 0 26.3555 0.996094 25.3829 2.60156L0.773482 43.418C-0.23433 45.082 -0.257768 47.168 0.691451 48.8555C1.64067 50.543 3.44536 51.5977 5.39067 51.5977H54.6094C56.5547 51.5977 58.3477 50.543 59.3086 48.8555C60.2579 47.168 60.2344 45.082 59.2266 43.418ZM55.8985 46.9336C55.6407 47.4023 55.1368 47.6836 54.6094 47.6836H5.39067C4.85161 47.6836 4.35942 47.3906 4.10161 46.9336C3.84379 46.4648 3.84379 45.8906 4.12504 45.4336L28.7344 4.61719C29.004 4.17188 29.4844 3.90234 30 3.90234C30.5157 3.90234 31.0079 4.17188 31.2657 4.61719L55.875 45.4336C56.1563 45.9023 56.168 46.4648 55.8985 46.9336Z" fill="#4546A3" fill-opacity="0.5"/>
<path d="M30.0234 16.0664C28.5352 16.0664 27.375 16.8633 27.375 18.2812C27.375 22.5937 27.8789 28.793 27.8789 33.1055C27.8789 34.2305 28.8633 34.6992 30.0117 34.6992C30.8789 34.6992 32.1094 34.2305 32.1094 33.1055C32.1094 28.793 32.6133 22.5937 32.6133 18.2812C32.625 16.875 31.4297 16.0664 30.0234 16.0664Z" fill="#4546A3" fill-opacity="0.5"/>
<path d="M30.0586 37.1953C28.4648 37.1953 27.2695 38.4609 27.2695 39.9844C27.2695 41.4727 28.4648 42.7734 30.0586 42.7734C31.5469 42.7734 32.8125 41.4727 32.8125 39.9844C32.8125 38.4727 31.5352 37.1953 30.0586 37.1953Z" fill="#4546A3" fill-opacity="0.5"/>
</g>
<defs>
<clipPath id="clip0">
<rect width="60" height="51.5977" fill="white"/>
</clipPath>
</defs>
</svg>
