<svg width="50" height="50" viewBox="0 0 50 50" fill="none" xmlns="http://www.w3.org/2000/svg">
<g clip-path="url(#clip0)">
<path d="M44.4099 9.23805C39.629 3.36155 32.5573 0 25 0C18.3267 0 12.0393 2.60209 7.32072 7.32072C2.60209 12.0393 0 18.3267 0 25C0 28.4861 0.709661 31.8601 2.09163 35.0224C4.17082 39.7784 7.78137 43.8496 12.251 46.5015C16.0981 48.7923 20.5055 50 25 50C26.0956 50 27.1912 49.9253 28.2744 49.7883C33.9268 49.0538 39.2057 46.3521 43.1524 42.1937C47.4477 37.6619 49.8755 31.7356 50 25.4856C50 25.3237 50.0125 25.1619 50.0125 25C50 19.2729 48.008 13.6703 44.4099 9.23805ZM42.4178 9.97261L38.745 16.3347H29.6564L25.6848 9.4497L29.4696 2.42779C34.4746 3.41135 39.0314 6.03835 42.4178 9.97261ZM23.8297 26.4691L28.0627 34.5991L24.004 41.6335H15.0772L11.1056 34.7485L15.8367 26.4691H23.8297V26.4691ZM11.8277 17.4676L15.874 10.4582H23.9666L28.0129 17.4676L23.9666 24.4771H15.874L11.8277 17.4676ZM25.6225 25.5976L29.8182 18.3267H38.5956L42.6917 25.4109L38.0354 33.628H29.8182L25.6225 25.5976ZM25 1.99203C25.7968 1.99203 26.5936 2.02938 27.378 2.11653L23.9542 8.46614H15.8616L13.6952 4.98008C17.0194 3.0752 20.8914 1.99203 25 1.99203ZM11.9895 6.0259L14.131 9.4746L10.122 16.4343H3.64791C5.35359 12.2012 8.27938 8.59064 11.9895 6.0259ZM1.99203 25C1.99203 22.7216 2.32819 20.5055 2.9507 18.4263H10.0847L14.131 25.4358L9.4497 33.628H3.66036C2.55229 30.8889 1.99203 27.988 1.99203 25ZM12.4128 44.2605C9.126 42.1066 6.41185 39.0936 4.59412 35.62H9.31275L13.3591 42.6295L12.4128 44.2605ZM14.1185 45.2814L15.0772 43.6255H24.004L26.5065 47.9582C22.1863 48.2445 17.8909 47.2983 14.1185 45.2814ZM28.6728 47.7216L25.7346 42.6295L29.7809 35.62H37.8735L41.1853 41.3596C37.7739 44.7211 33.379 46.9621 28.6728 47.7216ZM42.5921 39.8282L39.6663 34.7734L44.3725 26.4816H47.9582C47.6469 31.387 45.7794 36.0558 42.5921 39.8282ZM44.4348 24.4771L40.3884 17.4676L43.7375 11.6658C46.3894 15.4009 47.8835 19.883 47.9955 24.4771H44.4348V24.4771Z" fill="#4546A3" fill-opacity="0.5"/>
</g>
<defs>
<clipPath id="clip0">
<rect width="50" height="50" fill="white"/>
</clipPath>
</defs>
</svg>
