<svg width="60" height="60" viewBox="0 0 60 60" fill="none" xmlns="http://www.w3.org/2000/svg">
<g clip-path="url(#clip0)">
<path d="M53.2918 11.0857C47.5548 4.03386 39.0687 0 30 0C21.992 0 14.4472 3.12251 8.78486 8.78486C3.12251 14.4472 0 21.992 0 30C0 34.1833 0.851593 38.2321 2.50996 42.0269C5.00498 47.7341 9.33765 52.6195 14.7012 55.8018C19.3177 58.5508 24.6066 60 30 60C31.3147 60 32.6295 59.9104 33.9293 59.746C40.7122 58.8645 47.0468 55.6225 51.7829 50.6325C56.9373 45.1942 59.8506 38.0827 60 30.5827C60 30.3884 60.0149 30.1942 60.0149 30C60 23.1275 57.6096 16.4044 53.2918 11.0857ZM50.9014 11.9671L46.494 19.6016H35.5877L30.8217 11.3396L35.3635 2.91335C41.3695 4.09363 46.8377 7.24602 50.9014 11.9671ZM28.5956 31.763L33.6753 41.5189L28.8048 49.9602H18.0926L13.3267 41.6982L19.004 31.763H28.5956V31.763ZM14.1932 20.9612L19.0488 12.5498H28.76L33.6155 20.9612L28.76 29.3725H19.0488L14.1932 20.9612ZM30.747 30.7171L35.7819 21.992H46.3147L51.2301 30.493L45.6424 40.3536H35.7819L30.747 30.7171ZM30 2.39044C30.9562 2.39044 31.9124 2.43526 32.8536 2.53984L28.745 10.1594H19.0339L16.4343 5.9761C20.4233 3.69024 25.0697 2.39044 30 2.39044ZM14.3875 7.23108L16.9572 11.3695L12.1464 19.7211H4.37749C6.4243 14.6414 9.93526 10.3088 14.3875 7.23108ZM2.39044 30C2.39044 27.2659 2.79382 24.6066 3.54084 22.1116H12.1016L16.9572 30.5229L11.3396 40.3536H4.39243C3.06275 37.0667 2.39044 33.5857 2.39044 30ZM14.8954 53.1126C10.9512 50.5279 7.69422 46.9124 5.51295 42.744H11.1753L16.0309 51.1554L14.8954 53.1126ZM16.9422 54.3377L18.0926 52.3506H28.8048L31.8078 57.5498C26.6235 57.8934 21.4691 56.758 16.9422 54.3377ZM34.4074 57.2659L30.8815 51.1554L35.7371 42.744H45.4482L49.4223 49.6315C45.3287 53.6653 40.0548 56.3546 34.4074 57.2659ZM51.1106 47.7938L47.5996 41.7281L53.247 31.7779H57.5498C57.1763 37.6643 54.9353 43.2669 51.1106 47.7938ZM53.3217 29.3725L48.4661 20.9612L52.4851 13.999C55.6673 18.4811 57.4602 23.8596 57.5946 29.3725H53.3217V29.3725Z" fill="#4546A3" fill-opacity="0.5"/>
</g>
<defs>
<clipPath id="clip0">
<rect width="60" height="60" fill="white"/>
</clipPath>
</defs>
</svg>
