<svg width="50" height="22" viewBox="0 0 50 22" fill="none" xmlns="http://www.w3.org/2000/svg">
<g clip-path="url(#clip0)">
<path fill-rule="evenodd" clip-rule="evenodd" d="M11.8063 8.33264H38.2492V12.9358H11.8063V8.33264ZM13.2769 9.80323V11.4652H36.7786V9.80323H13.2769Z" fill="#ECEDF6"/>
<path fill-rule="evenodd" clip-rule="evenodd" d="M6.20142 1.64878C6.20142 0.631435 7.03681 -0.185669 8.04659 -0.185669H11.4317C12.4415 -0.185669 13.2769 0.631435 13.2769 1.64878V19.6749C13.2769 20.6922 12.4415 21.5093 11.4317 21.5093H8.04659C7.03681 21.5093 6.20142 20.6922 6.20142 19.6749V1.64878ZM8.04659 1.28492C7.8355 1.28492 7.672 1.45705 7.672 1.64878V19.6749C7.672 19.8666 7.8355 20.0387 8.04659 20.0387H11.4317C11.6428 20.0387 11.8063 19.8666 11.8063 19.6749V1.64878C11.8063 1.45705 11.6428 1.28492 11.4317 1.28492H8.04659Z" fill="#ECEDF6"/>
<path fill-rule="evenodd" clip-rule="evenodd" d="M1.98395 4.67148C1.98395 3.65414 2.81934 2.83704 3.82912 2.83704H5.8269C6.83668 2.83704 7.67207 3.65414 7.67207 4.67148V16.6522C7.67207 17.6696 6.83668 18.4867 5.8269 18.4867H3.82912C2.81934 18.4867 1.98395 17.6696 1.98395 16.6522V4.67148ZM3.82912 4.30762C3.61803 4.30762 3.45454 4.47976 3.45454 4.67148V16.6522C3.45454 16.844 3.61803 17.0161 3.82912 17.0161H5.8269C6.03799 17.0161 6.20148 16.844 6.20148 16.6522V4.67148C6.20148 4.47976 6.03799 4.30762 5.8269 4.30762H3.82912Z" fill="#ECEDF6"/>
<path fill-rule="evenodd" clip-rule="evenodd" d="M0.190143 7.76241C0.444143 7.51087 0.778431 7.39844 1.10987 7.39844H2.16426C2.4957 7.39844 2.82999 7.51087 3.08399 7.76241C3.33862 8.01459 3.45449 8.34918 3.45449 8.68331V12.6403C3.45449 12.9744 3.33862 13.309 3.08399 13.5611C2.82999 13.8127 2.4957 13.9251 2.16426 13.9251H1.10987C0.778431 13.9251 0.444143 13.8127 0.190143 13.5611C-0.0644929 13.309 -0.180359 12.9744 -0.180359 12.6403V8.68331C-0.180359 8.34918 -0.0644929 8.01459 0.190143 7.76241ZM1.29023 8.86903V12.4545H1.9839V8.86903H1.29023Z" fill="#ECEDF6"/>
<path fill-rule="evenodd" clip-rule="evenodd" d="M38.5683 1.28492C38.3572 1.28492 38.1937 1.45705 38.1937 1.64878V19.6749C38.1937 19.8666 38.3572 20.0387 38.5683 20.0387H41.9534C42.1645 20.0387 42.328 19.8666 42.328 19.6749V1.64878C42.328 1.45705 42.1645 1.28492 41.9534 1.28492H38.5683ZM36.7231 1.64878C36.7231 0.631435 37.5585 -0.185669 38.5683 -0.185669H41.9534C42.9632 -0.185669 43.7985 0.631435 43.7985 1.64878V19.6749C43.7985 20.6922 42.9632 21.5093 41.9534 21.5093H38.5683C37.5585 21.5093 36.7231 20.6922 36.7231 19.6749V1.64878Z" fill="#ECEDF6"/>
<path fill-rule="evenodd" clip-rule="evenodd" d="M44.1731 4.30762C43.962 4.30762 43.7985 4.47976 43.7985 4.67148V16.6522C43.7985 16.844 43.962 17.0161 44.1731 17.0161H46.1709C46.382 17.0161 46.5455 16.844 46.5455 16.6522V4.67148C46.5455 4.47976 46.382 4.30762 46.1709 4.30762H44.1731ZM42.3279 4.67148C42.3279 3.65414 43.1633 2.83704 44.1731 2.83704H46.1709C47.1807 2.83704 48.0161 3.65414 48.0161 4.67148V16.6522C48.0161 17.6696 47.1807 18.4867 46.1709 18.4867H44.1731C43.1633 18.4867 42.3279 17.6696 42.3279 16.6522V4.67148Z" fill="#ECEDF6"/>
<path fill-rule="evenodd" clip-rule="evenodd" d="M48.0161 8.86903V12.4545H48.7097V8.86903H48.0161ZM46.916 7.76241C47.17 7.51087 47.5043 7.39844 47.8357 7.39844H48.8901C49.2215 7.39844 49.5558 7.51087 49.8098 7.76241C50.0645 8.01459 50.1803 8.34918 50.1803 8.68331V12.6403C50.1803 12.9744 50.0645 13.309 49.8098 13.5611C49.5558 13.8127 49.2215 13.9251 48.8901 13.9251H47.8357C47.5043 13.9251 47.17 13.8127 46.916 13.5611C46.6613 13.309 46.5455 12.9744 46.5455 12.6403V8.68331C46.5455 8.34918 46.6613 8.01459 46.916 7.76241Z" fill="#ECEDF6"/>
</g>
<defs>
<clipPath id="clip0">
<rect width="50" height="21.3235" fill="white"/>
</clipPath>
</defs>
</svg>
