<svg width="41" height="41" viewBox="0 0 41 41" fill="none" xmlns="http://www.w3.org/2000/svg">
<g clip-path="url(#clip0)">
<path d="M20.5 33.8849C17.823 33.8849 15.6392 31.701 15.6392 29.024C15.6392 26.3471 17.823 24.1632 20.5 24.1632C23.177 24.1632 25.3608 26.3471 25.3608 29.024C25.3608 31.701 23.177 33.8849 20.5 33.8849ZM20.5 25.5721C18.5979 25.5721 17.0481 27.122 17.0481 29.024C17.0481 30.9261 18.5979 32.4759 20.5 32.4759C22.402 32.4759 23.9519 30.9261 23.9519 29.024C23.9519 27.122 22.402 25.5721 20.5 25.5721Z" fill="#ECEDF6"/>
<path d="M33.9553 40.8591H7.04468C5.28351 40.8591 3.73369 39.8024 3.09967 38.1821C2.11341 35.5051 1.76118 32.7577 2.04296 29.9398C2.88833 20.9931 10.3557 13.8075 19.3024 13.244C24.445 12.9622 29.3763 14.7233 33.1804 18.2457C36.9141 21.768 39.0275 26.6288 39.0275 31.7715C39.0275 33.9553 38.6753 36.1392 37.9003 38.1821C37.2663 39.8024 35.7165 40.8591 33.9553 40.8591ZM20.5 14.6529C20.1478 14.6529 19.7955 14.6529 19.3729 14.6529C11.0601 15.146 4.22681 21.8385 3.4519 30.0807C3.17011 32.6873 3.52235 35.2233 4.43815 37.689C4.79039 38.7457 5.84709 39.4502 7.04468 39.4502H33.9553C35.1529 39.4502 36.1392 38.7457 36.5619 37.689C37.2663 35.7869 37.6186 33.8144 37.6186 31.7715C37.6186 26.9811 35.7165 22.5429 32.1942 19.3024C29.0241 16.2732 24.8677 14.6529 20.5 14.6529Z" fill="#ECEDF6"/>
<path d="M34.0254 19.7955L32.7574 19.1615L39.168 6.05842C39.6612 5.07217 39.5907 3.87457 39.0271 2.95876C38.4636 2.04296 37.4069 1.47938 36.2797 1.40893H4.64913C3.52198 1.40893 2.46528 1.97251 1.9017 2.88832C1.33813 3.80412 1.26768 5.00172 1.76081 5.98797L8.24191 19.0911L6.97387 19.7251L0.49277 6.69244C-0.211698 5.28351 -0.141251 3.59278 0.70411 2.18385C1.54947 0.845361 3.02885 0 4.64913 0L36.3502 0.0704467C37.9704 0.0704467 39.4498 0.915808 40.2952 2.2543C41.1405 3.59278 41.211 5.28351 40.5065 6.76289L34.0254 19.7955Z" fill="#ECEDF6"/>
<path d="M29.5172 16.4845L28.2491 15.8505L31.6306 8.94673C31.9124 8.4536 31.8419 7.81958 31.5601 7.32645C31.2784 6.83332 30.7148 6.55154 30.1512 6.55154L10.8488 6.48109C10.2852 6.48109 9.72165 6.76288 9.43986 7.25601C9.15808 7.74913 9.08763 8.38315 9.36942 8.87628L12.6804 15.5687L11.4124 16.2027L8.10138 9.5103C7.60825 8.52405 7.6787 7.3969 8.24227 6.48109C8.80584 5.56528 9.7921 5.00171 10.8488 5.00171L30.1512 5.07216C31.2079 5.07216 32.1942 5.63573 32.7577 6.55154C33.3213 7.46735 33.3918 8.59449 32.8986 9.5103L29.5172 16.4845Z" fill="#ECEDF6"/>
</g>
<defs>
<clipPath id="clip0">
<rect width="41" height="40.8591" fill="white"/>
</clipPath>
</defs>
</svg>
