<svg width="56" height="50" viewBox="0 0 56 50" fill="none" xmlns="http://www.w3.org/2000/svg">
<g clip-path="url(#clip0)">
<path d="M54.38 44.5392L47.8157 43.8452V41.7633C49.0216 41.5017 49.8066 41.2514 49.8976 41.2173C50.273 41.0921 50.5347 40.7622 50.5688 40.3754L51.2514 31.6951C51.2628 31.6723 51.2742 31.6496 51.2855 31.6268C54.2321 24.2548 50.4209 18.2707 49.4425 16.9055V8.98746C49.4425 6.74627 47.7816 4.8919 46.223 3.90213C44.4369 2.76448 42.5711 1.70646 40.6712 0.762203C37.8157 -0.671244 35.6769 0.181998 34.3913 1.14901C33.7998 1.59269 33.3333 2.10464 33.0034 2.52557C30.4778 0.750826 27.6564 1.43342 27.5199 1.46755C27.099 1.56994 26.8032 1.94537 26.7804 2.37767C26.1888 22.7531 10.4551 27.9067 3.70876 29.1695C1.42207 29.6018 0 31.0352 0 32.9124V35.8248V35.8361V35.8475V39.4084C0 39.7724 0.204778 40.091 0.500569 40.2616C-0.967008 42.9806 1.28555 47.3037 1.38794 47.5199C1.50171 47.7474 1.70648 47.9067 1.94539 47.9863C6.65529 49.5335 15.5518 50.0113 24.6985 50C38.7258 50 53.3561 48.8851 54.3458 48.8054C54.8464 48.7713 55.2446 48.3504 55.2446 47.8384V45.5062C55.2446 45.0057 54.8692 44.5847 54.38 44.5392ZM40.364 40.3526V35.8475C40.364 35.3128 39.9317 34.8805 39.397 34.8805C39.1012 34.8805 32.0705 34.9374 25.6655 40.2616C23.8339 40.4778 12.9238 41.6041 1.94539 38.6689V37.372C4.35722 38.1797 9.05574 38.8168 15.9613 39.2605C16.0637 39.2719 16.9625 39.3515 18.2821 39.3515C21.058 39.3515 25.7452 38.9761 29.0785 36.7577C32.7986 34.2776 45.2901 32.7759 49.2491 32.3549L48.6803 39.5449C47.2696 39.9317 43.686 40.7622 40.364 40.3526ZM21.9226 42.5142C24.4369 42.389 26.0182 42.1729 26.2002 42.1388C26.3823 42.116 26.5529 42.0364 26.6894 41.9226C31.2628 38.0204 36.3481 37.0989 38.4187 36.8828V41.1831C38.4187 41.6496 38.7486 42.0478 39.2036 42.1388C40.1593 42.3208 41.1377 42.4004 42.0933 42.4004L41.661 43.7429H21.8544L21.9226 42.5142ZM15.6542 42.5711L15.529 43.2082C12.6735 44.1183 10.3413 44.1752 8.74858 43.3674C7.79295 42.8782 7.30375 42.1843 7.07622 41.752C10.1365 42.2412 13.0489 42.4801 15.6542 42.5711ZM1.93402 32.9124C1.93402 31.5813 3.57224 31.1718 4.07281 31.0807C5.27873 30.8532 6.76906 30.5119 8.3959 29.9886L8.97611 30.9897C9.15813 31.2969 9.47668 31.4675 9.81797 31.4675C9.98862 31.4675 10.1479 31.422 10.3072 31.331C10.7736 31.058 10.9215 30.4664 10.6598 30.0113L10.273 29.3401C11.3311 28.9419 12.4232 28.4641 13.5267 27.8953C13.5495 27.9067 13.5722 27.9067 13.595 27.9181C13.6405 27.9294 14.6416 28.2366 15.1991 29.3743C15.3697 29.7156 15.711 29.909 16.0637 29.909C16.2116 29.909 16.3595 29.8748 16.496 29.8066C16.9738 29.5677 17.1672 28.9875 16.9283 28.5096C16.5301 27.7247 16.0068 27.1786 15.5063 26.8032C16.3709 26.2798 17.2241 25.6996 18.066 25.0625L20.1593 26.6098C20.3299 26.7349 20.5347 26.8032 20.7281 26.8032C21.0239 26.8032 21.3197 26.6666 21.5131 26.405C21.8316 25.9727 21.7406 25.3697 21.3083 25.0512L19.6018 23.7997C20.7622 22.7645 21.8771 21.6041 22.901 20.273C23.2423 20.3071 24.3231 20.6371 25.2901 23.0716C25.438 23.4471 25.802 23.686 26.1888 23.686C26.314 23.686 26.4278 23.6632 26.5529 23.6177C27.0535 23.4243 27.2924 22.8555 27.0876 22.3549C26.1661 20.0455 25.0057 19.0557 24.0614 18.6348C24.6644 17.7133 25.2218 16.7349 25.7338 15.6769C26.6553 15.8361 28.9761 16.4277 30 18.4755C30.1706 18.8168 30.5119 19.0102 30.8646 19.0102C31.0125 19.0102 31.1604 18.9761 31.2969 18.9078C31.7747 18.6689 31.9681 18.0887 31.7292 17.6109C30.4664 15.0853 27.9522 14.1752 26.5188 13.868C26.8942 12.901 27.2355 11.8885 27.5199 10.8191C28.1342 10.876 29.6928 11.2286 31.7292 13.2764C31.9226 13.4698 32.1615 13.5608 32.4118 13.5608C32.6621 13.5608 32.9124 13.4698 33.0944 13.2764C33.4698 12.901 33.4698 12.2867 33.0944 11.8999C30.8987 9.70418 29.0557 9.07847 27.9636 8.9192C28.0887 8.33899 28.1911 7.74741 28.2821 7.13308C29.2719 7.0762 31.8658 7.17858 34.0614 9.37426C34.2548 9.56766 34.4937 9.65868 34.744 9.65868C34.9943 9.65868 35.2446 9.56766 35.4266 9.37426C35.802 8.99883 35.802 8.3845 35.4266 8.00907C32.9238 5.51761 30 5.17631 28.521 5.19906C28.5779 4.58473 28.6234 3.94764 28.6576 3.29918C29.5677 3.24229 31.1832 3.37881 32.4915 4.69849C32.7076 4.91465 33.0262 5.01704 33.3333 4.97153C33.6405 4.92603 33.9022 4.72125 34.0501 4.44821C34.0501 4.43683 34.562 3.45845 35.5176 2.74172C36.7691 1.79747 38.157 1.74059 39.7725 2.53695C41.6041 3.45845 43.413 4.48234 45.1422 5.57449C46.2116 6.25708 47.463 7.56539 47.463 9.02159V17.2582C47.463 17.4744 47.5427 17.6905 47.6792 17.8612C47.7247 17.9181 52.0933 23.4471 49.6587 30.3868C46.496 30.7053 32.3436 32.2525 27.975 35.1649C23.6405 38.0546 16.2002 37.3492 16.0978 37.3492C10.2389 36.951 3.41297 36.1206 1.93402 35.3811V32.9124ZM53.3106 46.9397C47.4061 47.3606 13.959 49.5677 2.94653 46.2571C2.30944 44.8919 1.31968 41.9909 2.50284 40.8077C3.35609 41.0125 4.19795 41.2059 5.03982 41.3652C5.00569 41.5244 5.00569 41.6837 5.05119 41.843C5.07395 41.9226 5.6314 43.8794 7.82708 45.0398C8.87372 45.5859 10.091 45.8703 11.479 45.8589C13.0262 45.8589 14.7668 45.5176 16.7122 44.835C17.0421 44.7212 17.281 44.4368 17.3493 44.1069L17.6337 42.5938C17.8271 42.5938 18.0319 42.5938 18.2253 42.5938C18.8396 42.5938 19.4312 42.5825 20 42.5711L19.8862 44.653C19.8749 44.9146 19.9659 45.1763 20.1479 45.3697C20.3299 45.5631 20.5802 45.6769 20.8532 45.6769H42.4005C42.8214 45.6769 43.1968 45.4038 43.322 45.0057L44.1752 42.3208C44.7782 42.2753 45.347 42.1956 45.8931 42.116V44.7099C45.8931 45.2104 46.2685 45.62 46.7577 45.6769L53.322 46.3708V46.9397H53.3106Z" fill="#4546A3" fill-opacity="0.6"/>
</g>
<defs>
<clipPath id="clip0">
<rect width="55.2446" height="50" fill="white"/>
</clipPath>
</defs>
</svg>
