<svg width="55" height="24" viewBox="0 0 55 24" fill="none" xmlns="http://www.w3.org/2000/svg">
<g clip-path="url(#clip0)">
<path fill-rule="evenodd" clip-rule="evenodd" d="M12.9869 9.16602H42.0741V14.2295H12.9869V9.16602ZM14.6046 10.7837V12.6119H40.4564V10.7837H14.6046Z" fill="#ECEDF6"/>
<path fill-rule="evenodd" clip-rule="evenodd" d="M6.82159 1.81367C6.82159 0.694591 7.74053 -0.204224 8.85128 -0.204224H12.5749C13.6857 -0.204224 14.6046 0.694591 14.6046 1.81367V21.6423C14.6046 22.7614 13.6857 23.6602 12.5749 23.6602H8.85128C7.74053 23.6602 6.82159 22.7614 6.82159 21.6423V1.81367ZM8.85128 1.41342C8.61908 1.41342 8.43924 1.60277 8.43924 1.81367V21.6423C8.43924 21.8532 8.61908 22.0426 8.85128 22.0426H12.5749C12.8071 22.0426 12.987 21.8532 12.987 21.6423V1.81367C12.987 1.60277 12.8071 1.41342 12.5749 1.41342H8.85128Z" fill="#ECEDF6"/>
<path fill-rule="evenodd" clip-rule="evenodd" d="M2.18237 5.13862C2.18237 4.01954 3.10131 3.12073 4.21206 3.12073H6.40962C7.52037 3.12073 8.43931 4.01954 8.43931 5.13862V18.3174C8.43931 19.4365 7.52037 20.3353 6.40962 20.3353H4.21206C3.10131 20.3353 2.18237 19.4365 2.18237 18.3174V5.13862ZM4.21206 4.73837C3.97986 4.73837 3.80002 4.92772 3.80002 5.13862V18.3174C3.80002 18.5283 3.97986 18.7177 4.21206 18.7177H6.40962C6.64182 18.7177 6.82166 18.5283 6.82166 18.3174V5.13862C6.82166 4.92772 6.64182 4.73837 6.40962 4.73837H4.21206Z" fill="#ECEDF6"/>
<path fill-rule="evenodd" clip-rule="evenodd" d="M0.209188 8.53868C0.488588 8.26198 0.856304 8.13831 1.22089 8.13831H2.38071C2.7453 8.13831 3.11302 8.26198 3.39242 8.53868C3.67252 8.81607 3.79997 9.18412 3.79997 9.55166V13.9043C3.79997 14.2718 3.67252 14.6399 3.39242 14.9173C3.11302 15.194 2.7453 15.3177 2.38071 15.3177H1.22089C0.856304 15.3177 0.488588 15.194 0.209188 14.9173C-0.0709116 14.6399 -0.198364 14.2718 -0.198364 13.9043V9.55166C-0.198364 9.18412 -0.0709116 8.81607 0.209188 8.53868ZM1.41928 9.75595V13.7H2.18232V9.75595H1.41928Z" fill="#ECEDF6"/>
<path fill-rule="evenodd" clip-rule="evenodd" d="M42.4251 1.41342C42.1929 1.41342 42.013 1.60277 42.013 1.81367V21.6423C42.013 21.8532 42.1929 22.0426 42.4251 22.0426H46.1487C46.3809 22.0426 46.5607 21.8532 46.5607 21.6423V1.81367C46.5607 1.60277 46.3809 1.41342 46.1487 1.41342H42.4251ZM40.3954 1.81367C40.3954 0.694591 41.3143 -0.204224 42.4251 -0.204224H46.1487C47.2595 -0.204224 48.1784 0.694591 48.1784 1.81367V21.6423C48.1784 22.7614 47.2595 23.6602 46.1487 23.6602H42.4251C41.3143 23.6602 40.3954 22.7614 40.3954 21.6423V1.81367Z" fill="#ECEDF6"/>
<path fill-rule="evenodd" clip-rule="evenodd" d="M48.5904 4.73837C48.3582 4.73837 48.1784 4.92772 48.1784 5.13862V18.3174C48.1784 18.5283 48.3582 18.7177 48.5904 18.7177H50.788C51.0202 18.7177 51.2 18.5283 51.2 18.3174V5.13862C51.2 4.92772 51.0202 4.73837 50.788 4.73837H48.5904ZM46.5607 5.13862C46.5607 4.01954 47.4797 3.12073 48.5904 3.12073H50.788C51.8987 3.12073 52.8177 4.01954 52.8177 5.13862V18.3174C52.8177 19.4365 51.8987 20.3353 50.788 20.3353H48.5904C47.4797 20.3353 46.5607 19.4365 46.5607 18.3174V5.13862Z" fill="#ECEDF6"/>
<path fill-rule="evenodd" clip-rule="evenodd" d="M52.8177 9.75595V13.7H53.5807V9.75595H52.8177ZM51.6076 8.53868C51.887 8.26198 52.2547 8.13831 52.6193 8.13831H53.7791C54.1437 8.13831 54.5114 8.26198 54.7908 8.53868C55.0709 8.81607 55.1983 9.18412 55.1983 9.55166V13.9043C55.1983 14.2718 55.0709 14.6399 54.7908 14.9173C54.5114 15.194 54.1437 15.3177 53.7791 15.3177H52.6193C52.2547 15.3177 51.887 15.194 51.6076 14.9173C51.3275 14.6399 51.2 14.2718 51.2 13.9043V9.55166C51.2 9.18412 51.3275 8.81607 51.6076 8.53868Z" fill="#ECEDF6"/>
</g>
<defs>
<clipPath id="clip0">
<rect width="55" height="23.4559" fill="white"/>
</clipPath>
</defs>
</svg>
