<svg width="60" height="60" viewBox="0 0 60 60" fill="none" xmlns="http://www.w3.org/2000/svg">
<g clip-path="url(#clip0)">
<path d="M30 49.5876C26.0825 49.5876 22.8866 46.3918 22.8866 42.4742C22.8866 38.5567 26.0825 35.3608 30 35.3608C33.9175 35.3608 37.1134 38.5567 37.1134 42.4742C37.1134 46.3918 33.9175 49.5876 30 49.5876ZM30 37.4227C27.2165 37.4227 24.9485 39.6907 24.9485 42.4742C24.9485 45.2577 27.2165 47.5258 30 47.5258C32.7835 47.5258 35.0515 45.2577 35.0515 42.4742C35.0515 39.6907 32.7835 37.4227 30 37.4227Z" fill="#ECEDF6"/>
<path d="M49.6907 59.7938H10.3093C7.73196 59.7938 5.46392 58.2474 4.53608 55.8763C3.09278 51.9587 2.57732 47.9381 2.98969 43.8144C4.2268 30.7216 15.1546 20.2062 28.2474 19.3814C35.7732 18.969 42.9897 21.5464 48.5567 26.701C54.0206 31.8556 57.1134 38.969 57.1134 46.4948C57.1134 49.6907 56.5979 52.8866 55.4639 55.8763C54.5361 58.2474 52.268 59.7938 49.6907 59.7938ZM30 21.4433C29.4845 21.4433 28.9691 21.4433 28.3505 21.4433C16.1856 22.1649 6.18557 31.9587 5.05155 44.0206C4.63918 47.835 5.15464 51.5464 6.49485 55.1546C7.01031 56.701 8.5567 57.7319 10.3093 57.7319H49.6907C51.4433 57.7319 52.8866 56.701 53.5052 55.1546C54.5361 52.3711 55.0515 49.4845 55.0515 46.4948C55.0515 39.4845 52.268 32.9897 47.1134 28.2474C42.4742 23.8144 36.3918 21.4433 30 21.4433Z" fill="#ECEDF6"/>
<path d="M49.7933 28.9691L47.9376 28.0412L57.319 8.86598C58.0407 7.42268 57.9376 5.6701 57.1128 4.3299C56.2881 2.98969 54.7417 2.16495 53.0922 2.06186H6.80357C5.15408 2.06186 3.60769 2.8866 2.78295 4.2268C1.95821 5.56701 1.85511 7.31959 2.57676 8.76289L12.0613 27.9381L10.2056 28.866L0.721094 9.79381C-0.309834 7.73196 -0.206741 5.25773 1.03037 3.19588C2.26749 1.23711 4.43243 0 6.80357 0L53.1953 0.103093C55.5665 0.103093 57.7314 1.34021 58.9685 3.29897C60.2056 5.25773 60.3087 7.73196 59.2778 9.89691L49.7933 28.9691Z" fill="#ECEDF6"/>
<path d="M43.1959 24.1237L41.3402 23.1959L46.2887 13.0928C46.7011 12.3711 46.598 11.4433 46.1856 10.7216C45.7732 9.99999 44.9485 9.58762 44.1237 9.58762L15.8763 9.48453C15.0516 9.48453 14.2268 9.8969 13.8145 10.6185C13.4021 11.3402 13.299 12.268 13.7114 12.9897L18.5567 22.7835L16.7011 23.7113L11.8557 13.9175C11.134 12.4742 11.2371 10.8247 12.0619 9.48453C12.8866 8.14432 14.3299 7.31958 15.8763 7.31958L44.1237 7.42267C45.6701 7.42267 47.1134 8.24742 47.9382 9.58762C48.7629 10.9278 48.866 12.5773 48.1444 13.9175L43.1959 24.1237Z" fill="#ECEDF6"/>
</g>
<defs>
<clipPath id="clip0">
<rect width="60" height="59.7938" fill="white"/>
</clipPath>
</defs>
</svg>
