<svg width="50" height="50" viewBox="0 0 50 50" fill="none" xmlns="http://www.w3.org/2000/svg">
<path d="M47.5653 25.8741L43.8431 22.1737C43.9119 21.9394 43.9413 21.6953 43.9413 21.4414V15.7688C43.9413 15.2318 43.4994 14.7924 42.9592 14.7924H36.3889L29.465 0.557095C29.3176 0.264187 29.0426 0.0591511 28.7185 0.0103331C28.3944 -0.0384849 28.0703 0.0884419 27.8445 0.332532L20.842 8.24105L14.3207 5.87826C14.0752 5.79039 13.81 5.80015 13.5743 5.90755C13.3386 6.01495 13.152 6.21999 13.0636 6.45431L11.1092 11.7852C10.9717 12.1563 10.9226 12.537 10.9521 12.9178L9.78336 13.5134C7.18076 14.8413 5.19689 17.0674 4.19513 19.8012L0.482732 29.9553C-0.244033 31.9373 -0.145821 34.0853 0.747904 35.9892C1.64163 37.8931 3.23266 39.3479 5.22635 40.0704L15.8528 43.9173C16.4126 44.1223 16.9823 44.2199 17.5519 44.2199C19.4081 44.2199 21.1464 43.1752 21.9812 41.408L23.8571 37.4245V42.111C23.8571 46.4656 27.4222 50 31.7926 50H39.7379C44.1181 50 47.6734 46.4558 47.6734 42.111V38.1079C49.0778 36.9265 49.9715 35.1691 49.9715 33.2066V31.6932C49.9912 29.4867 49.1269 27.4265 47.5653 25.8741ZM35.7701 16.7354C35.78 16.7354 35.78 16.7354 35.7701 16.7354H41.9771V18.5026H36.4969C35.9567 18.5026 35.5148 18.942 35.5148 19.479C35.5148 20.016 35.9567 20.4553 36.4969 20.4553H41.9771V21.4414C41.9771 21.871 41.6235 22.2225 41.1914 22.2225H30.3489C29.9167 22.2225 29.5632 21.871 29.5632 21.4414V16.7452L35.7701 16.7354ZM28.3453 2.73438L34.2086 14.7827H28.581C28.0409 14.7827 27.5989 15.222 27.5989 15.759V21.1778L26.1258 18.0242C26.2731 17.8289 26.3909 17.6044 26.4695 17.37L28.4239 12.0391C28.6105 11.5314 28.3453 10.9749 27.8346 10.7894L22.8259 8.97332L28.3453 2.73438ZM12.9556 12.4687L13.427 11.1897L19.4081 13.3572C19.5161 13.3962 19.634 13.4158 19.742 13.4158C20.1447 13.4158 20.5179 13.1717 20.6652 12.7714C20.8518 12.2637 20.5866 11.7071 20.0759 11.5216L14.0948 9.3541L14.5663 8.05555L26.2338 12.2734L24.6133 16.6866C24.5446 16.8818 24.3972 17.0381 24.2106 17.1259C24.024 17.2138 23.808 17.2236 23.6115 17.1552L13.4172 13.4646C13.2208 13.3962 13.0636 13.2498 12.9752 13.0643C12.8967 12.8788 12.8868 12.664 12.9556 12.4687ZM23.8669 32.8161L20.2134 40.5684C19.5652 41.9548 17.984 42.5992 16.5403 42.0817L5.90401 38.2349C4.40137 37.6881 3.20319 36.6043 2.53535 35.1691C1.86751 33.7338 1.78895 32.1228 2.33893 30.629L6.05133 20.4944C6.8763 18.2292 8.52626 16.3741 10.6869 15.2709L11.7967 14.7046C12.0717 14.9682 12.3958 15.1732 12.769 15.3099L22.9634 19.0005C23.2678 19.1079 23.5919 19.1665 23.9062 19.1665C24.1026 19.1665 24.2892 19.147 24.4758 19.1079L26.0963 22.5643C26.3025 23.0036 26.4695 23.4625 26.607 23.9214C24.8294 25.9815 23.8669 28.5982 23.8669 31.3222V32.8161ZM48.0269 33.1968C48.0269 35.6573 46.0136 37.6588 43.5387 37.6588H41.9378C40.5727 37.6588 39.4629 36.5555 39.4629 35.1984C39.4629 33.8412 40.5727 32.7379 41.9378 32.7379H43.7056C44.2458 32.7379 44.6877 32.2986 44.6877 31.7616C44.6877 31.2246 44.2458 30.7852 43.7056 30.7852H41.9378C39.4924 30.7852 37.4987 32.7672 37.4987 35.1984C37.4987 37.6295 39.4924 39.6115 41.9378 39.6115H43.5387C44.3047 39.6115 45.0413 39.4748 45.719 39.2307V42.111C45.719 45.3818 43.0378 48.0473 39.7477 48.0473H31.8024C28.5123 48.0473 25.8311 45.3818 25.8311 42.111V31.3222C25.8311 28.9106 26.7445 26.6064 28.3944 24.8392L29.2391 23.9312C29.5828 24.0874 29.956 24.1655 30.3587 24.1655H41.2012C41.7414 24.1655 42.2325 24.0093 42.6646 23.7457L46.1806 27.241C47.3689 28.4224 48.0269 30.0041 48.0269 31.6737V33.1968Z" fill="#4546A3" fill-opacity="0.5"/>
<path d="M33.1685 18.7861C32.9818 18.6005 32.7362 18.5028 32.4708 18.5028C32.2055 18.5028 31.9598 18.6103 31.7731 18.7861C31.5864 18.9717 31.4882 19.216 31.4882 19.4797C31.4882 19.7337 31.5963 19.9877 31.7731 20.1733C31.9598 20.3589 32.2055 20.4566 32.4708 20.4566C32.7362 20.4566 32.9818 20.3492 33.1685 20.1733C33.3552 19.9877 33.4535 19.7435 33.4535 19.4797C33.4535 19.2257 33.3552 18.9717 33.1685 18.7861Z" fill="#4546A3" fill-opacity="0.5"/>
<path d="M12.259 36.3799L12.2295 36.3702C11.7185 36.1846 11.1584 36.4483 10.9717 36.9563C10.785 37.4643 11.0503 38.0212 11.5613 38.2068L11.5907 38.2165C11.6988 38.2556 11.8168 38.2752 11.9249 38.2752C12.3277 38.2752 12.7012 38.0309 12.8486 37.6304C13.0353 37.1224 12.7699 36.5656 12.259 36.3799Z" fill="#4546A3" fill-opacity="0.5"/>
<path d="M8.75217 35.1109L7.23971 34.5641C6.72901 34.3786 6.31652 34.0076 6.09063 33.5096C5.86475 33.0215 5.83528 32.4649 6.02189 31.9572C6.20849 31.4495 5.94332 30.893 5.43262 30.7075C4.92192 30.522 4.36211 30.7856 4.17551 31.2933C3.81213 32.2892 3.86123 33.373 4.313 34.3395C4.76478 35.3061 5.57011 36.0384 6.57187 36.3997L8.08433 36.9464C8.19236 36.9855 8.31021 37.005 8.41825 37.005C8.82091 37.005 9.19412 36.7609 9.34143 36.3606C9.52804 35.8627 9.26287 35.2964 8.75217 35.1109Z" fill="#4546A3" fill-opacity="0.5"/>
</svg>
