<svg width="52" height="51" viewBox="0 0 52 51" fill="none" xmlns="http://www.w3.org/2000/svg">
<path d="M51.507 50.2111C51.1932 50.436 50.8048 50.4959 50.4313 50.376L19.7361 37.6661H12.3406C5.54283 37.6661 0 32.1206 0 25.286C0 18.4515 5.54283 12.9059 12.3406 12.9059H19.7211L50.4163 0.0611229C50.5359 0.0161587 50.6703 0.00117493 50.7898 0.00117493C51.0438 0.00117493 51.2829 0.0761136 51.492 0.225994C51.8058 0.450815 51.9851 0.810529 51.9851 1.20022V49.2369C52 49.6266 51.8207 49.9863 51.507 50.2111ZM11.1454 15.3789C6.21514 15.9784 2.39044 20.1901 2.39044 25.301C2.39044 30.4119 6.21514 34.6236 11.1454 35.2231V15.3789ZM18.7201 30.7417V15.304H13.5359V35.2681H18.7201V30.7417ZM49.6096 2.8489L21.1106 14.9592V18.6613L49.6096 11.9616V2.8489ZM49.6096 14.3897L21.1106 21.0894V24.2219H49.6096V14.3897ZM49.6096 26.6349H21.1106V29.7375L49.6096 36.1973V26.6349ZM49.6096 38.6254L21.1106 32.1655V35.5978L49.6096 47.5882V38.6254Z" fill="#4546A3" fill-opacity="0.5"/>
<path d="M9.248 19.9342C7.42529 21.0882 6.33465 23.0517 6.33465 25.21C6.33465 25.8694 5.7968 26.409 5.13943 26.409C4.48206 26.409 3.94421 25.8694 3.94421 25.21C3.94421 22.2273 5.45318 19.4995 7.96314 17.8958C8.15736 17.7759 8.38147 17.7159 8.60557 17.7159C9.00896 17.7159 9.3974 17.9108 9.62151 18.2705C9.96513 18.84 9.80079 19.5744 9.248 19.9342Z" fill="#4546A3" fill-opacity="0.5"/>
<path d="M5.58761 28.0277C5.78183 27.9078 5.991 27.8479 6.20016 27.8479C6.60355 27.8479 7.00693 28.0577 7.23104 28.4324C7.75395 29.3017 8.48602 30.0361 9.35255 30.5607C9.92028 30.9054 10.0996 31.6398 9.75594 32.2094C9.41231 32.7789 8.68024 32.9588 8.11251 32.614C6.91729 31.8946 5.90136 30.8754 5.18422 29.6764C4.8406 29.1068 5.01988 28.3724 5.58761 28.0277Z" fill="#4546A3" fill-opacity="0.5"/>
</svg>
