<svg width="50" height="50" viewBox="0 0 50 50" fill="none" xmlns="http://www.w3.org/2000/svg">
<g clip-path="url(#clip0)">
<path d="M49.625 6.81248C49.3959 6.65623 49.1042 6.62498 48.8438 6.72915L44.8334 8.33332H41.6667C41.3125 8.33332 40.9896 8.56248 40.875 8.90623L40.1563 11.0521L38.1459 11.9479L25.8959 17.3958C24.2292 16.4271 22.2292 16.2083 20.3854 16.7708L19.9896 16.7396V15.5208L22.8646 14.0937C22.9479 14.0521 23.0209 14 23.0834 13.9375L31.8959 5.12498L32.0625 4.95832L36.8021 4.16665C37.0313 4.12498 37.2292 3.99998 37.3542 3.81248L39.0209 1.31248C39.1875 1.05207 39.2084 0.729149 39.0625 0.458316C38.9167 0.187483 38.6354 0.0208159 38.3229 0.0208159H31.6979C30.9271 0.0208159 30.1771 0.312483 29.6042 0.833316L28.8959 1.48957L19.6771 9.99998H19.6354C19.8021 9.78123 19.9375 9.53123 20.0521 9.28123L20.6979 7.77082L21.0313 6.98957C21.3021 6.35415 21.3854 5.65623 21.2813 4.96873C22.2813 5.1354 23.2917 4.67707 23.8229 3.81248C24.3542 2.9479 24.3125 1.84373 23.7084 1.02082C23.1042 0.197899 22.0625 -0.166684 21.0834 0.0833159C20.0938 0.333316 19.3646 1.15623 19.2292 2.16665C19.1667 2.1354 19.125 2.10415 19.0625 2.0729C18.8542 1.98957 18.6459 1.91665 18.4271 1.87498C18.375 1.86457 18.3334 1.85415 18.2813 1.84373C18.0834 1.81248 17.8959 1.79165 17.6979 1.78123C17.625 1.78123 17.5521 1.78123 17.4792 1.78123C17.3229 1.78123 17.1667 1.80207 17.0104 1.8229C16.9167 1.83332 16.8229 1.85415 16.7396 1.87498C16.6042 1.90623 16.4688 1.9479 16.3334 1.99998C16.25 2.03123 16.1771 2.05207 16.1042 2.09373C15.9479 2.15623 15.8021 2.23957 15.6563 2.3229L15.6459 2.33332C14.9792 2.73957 14.4584 3.34373 14.1563 4.05207L13.1459 6.35415C13.125 6.39582 13.125 6.43748 13.1042 6.48957L9.69794 1.37498C9.12503 0.520816 8.16669 -1.74419e-05 7.13544 0.0103992H0.833361C0.562528 0.0103992 0.312528 0.135399 0.156278 0.354149C2.78627e-05 0.572899 -0.0416388 0.854149 0.0416945 1.10415L0.875028 3.60415C0.968778 3.89582 1.21878 4.11457 1.53128 4.16665L6.13544 4.93748L10.7604 13.4062L10.625 13.75C9.72919 16.0208 10.6354 18.5937 12.75 19.8125L15.0313 23.6041L15.9896 38.3958L16.6875 49.2291C16.7188 49.6666 17.0729 50.0104 17.5209 50.0104H20.0209C20.4167 50.0104 20.7604 49.7291 20.8334 49.3437L21.6354 45.3437L23.2084 42.9791C23.3959 42.6979 23.3959 42.3333 23.2084 42.0521L21.6979 39.7812L21.7813 38.3958L22.4896 26.3541L40.9479 16.1666L46.2188 13.2604L49.5521 11.5937C49.8334 11.4479 50.0104 11.1666 50.0104 10.8437V7.49998C49.9896 7.22915 49.8542 6.96873 49.625 6.81248ZM30.75 2.05207C31.0104 1.81248 31.3542 1.67707 31.7084 1.67707H36.7709L36.1667 2.58332L31.5209 3.35415C31.5 3.35415 31.4896 3.36457 31.4688 3.36457L30.5938 2.1979L30.75 2.05207ZM17.3646 3.46873C17.4792 3.45832 17.5938 3.4479 17.7188 3.4479C17.7604 3.4479 17.8125 3.45832 17.8542 3.45832C18.0313 3.47915 18.2084 3.52082 18.375 3.59373H18.3854C18.8959 3.81248 19.2917 4.21873 19.5 4.72915C19.5521 4.85415 19.5834 4.96873 19.6146 5.10415C19.625 5.14582 19.625 5.18748 19.6354 5.22915C19.6459 5.31248 19.6563 5.39582 19.6563 5.47915C19.6563 5.53123 19.6563 5.5729 19.6459 5.62498C19.6459 5.70832 19.6354 5.78123 19.625 5.85415C19.6146 5.90623 19.6042 5.95832 19.5938 5.99998C19.5834 6.03123 19.5729 6.0729 19.5625 6.10415L19.2917 5.89582C18.4375 5.24998 17.7188 4.41665 17.2084 3.46873C17.25 3.47915 17.3021 3.47915 17.3646 3.46873ZM21.6667 1.67707C22.125 1.67707 22.5 2.05207 22.5 2.5104C22.5 2.96873 22.125 3.34373 21.6667 3.34373C21.2084 3.34373 20.8334 2.96873 20.8334 2.5104C20.8334 2.05207 21.2084 1.67707 21.6667 1.67707ZM14.6771 6.99998L15.6563 4.6979C15.7084 4.60415 15.7604 4.5104 15.8229 4.42707C16.4375 5.52082 17.2709 6.48957 18.2813 7.24998L18.9063 7.71873L18.5209 8.6354C18.0729 9.68748 16.8438 10.1875 15.7917 9.73957C14.7188 9.29165 14.2292 8.0729 14.6771 6.99998ZM1.98961 1.67707H7.13544C7.37503 1.67707 7.60419 1.73957 7.81253 1.85415L6.38544 3.28123L2.30211 2.60415L1.98961 1.67707ZM20.1354 44.5416C20.0729 44.6354 20.0313 44.7291 20.0104 44.8437L19.3125 48.3437H18.2813L17.6875 39.1771H20.0417L19.9896 39.9583C19.9792 40.1354 20.0313 40.3229 20.125 40.4687L21.4896 42.5104L20.1354 44.5416ZM21.2604 25.1041C21.0104 25.2396 20.8438 25.5 20.8334 25.7812L20.1459 37.5H17.5834L16.6667 23.2812C16.6563 23.1458 16.6146 23.0208 16.5521 22.9062L14.0521 18.7396C13.9688 18.6041 13.8542 18.4896 13.7084 18.4271C12.2188 17.6771 11.5521 15.9062 12.1563 14.3541L12.4375 13.6458C12.5313 13.4166 12.5104 13.1562 12.3959 12.9375L7.69794 4.3229L8.87503 3.14582L14.3125 11.3021C14.4688 11.5312 14.7292 11.6771 15.0104 11.6771H20.0104C20.2188 11.6771 20.4167 11.5937 20.5729 11.4583L29.375 3.33332L30.2188 4.45832L22.0209 12.6562L18.8125 14.2604C18.5313 14.4062 18.3542 14.6875 18.3542 15.0104V17.5104C18.3542 17.9479 18.6875 18.3021 19.1146 18.3437L20.4271 18.4583C20.5417 18.4687 20.6563 18.4583 20.7604 18.4166C22.3125 17.8958 24.0209 18.125 25.3854 19.0312C25.625 19.1875 25.9271 19.2187 26.1875 19.1041L38.2188 13.75L38.4063 14L39.2813 15.1666L21.2604 25.1041ZM48.3229 10.3229L45.4271 11.7708L40.7604 14.3437L39.7813 13.0416L41.1667 12.4271C41.3854 12.3333 41.5417 12.1458 41.6146 11.9271L42.25 9.99998H45C45.1042 9.99998 45.2084 9.97915 45.3125 9.93748L48.3334 8.72915V10.3229H48.3229Z" fill="#4546A3" fill-opacity="0.5"/>
</g>
<defs>
<clipPath id="clip0">
<rect width="49.9896" height="50" fill="white"/>
</clipPath>
</defs>
</svg>
