<svg width="68" height="29" viewBox="0 0 68 29" fill="none" xmlns="http://www.w3.org/2000/svg">
<g clip-path="url(#clip0)">
<path d="M51.0189 12.3325H17.0566V16.5928H51.0189V12.3325Z" stroke="#DEDEE5" stroke-width="2" stroke-miterlimit="10"/>
<path d="M9.43384 2.24228V26.7577C9.43384 27.5799 10.1131 28.2526 10.9433 28.2526H15.547C16.3772 28.2526 17.0565 27.5799 17.0565 26.7577V2.24228C17.0565 1.42012 16.3772 0.747437 15.547 0.747437H10.9433C10.1131 0.747437 9.43384 1.42012 9.43384 2.24228Z" stroke="#DEDEE5" stroke-width="2" stroke-miterlimit="10"/>
<path d="M3.698 6.35312V22.6469C3.698 23.4691 4.37724 24.1418 5.20743 24.1418H7.92441C8.7546 24.1418 9.43385 23.4691 9.43385 22.6469V6.35312C9.43385 5.53096 8.7546 4.85828 7.92441 4.85828H5.20743C4.37724 4.85828 3.698 5.53096 3.698 6.35312Z" stroke="#DEDEE5" stroke-width="2" stroke-miterlimit="10"/>
<path d="M0.754639 11.8093V17.1907C0.754639 17.6391 1.05653 17.9381 1.50936 17.9381H2.94332C3.39615 17.9381 3.69803 17.6391 3.69803 17.1907V11.8093C3.69803 11.3608 3.39615 11.0618 2.94332 11.0618H1.50936C1.05653 11.0618 0.754639 11.3608 0.754639 11.8093Z" stroke="#DEDEE5" stroke-width="2" stroke-miterlimit="10"/>
<path d="M58.566 2.24228V26.7577C58.566 27.5799 57.8868 28.2526 57.0566 28.2526H52.4528C51.6226 28.2526 50.9434 27.5799 50.9434 26.7577V2.24228C50.9434 1.42012 51.6226 0.747437 52.4528 0.747437H57.0566C57.8868 0.747437 58.566 1.42012 58.566 2.24228Z" stroke="#DEDEE5" stroke-width="2" stroke-miterlimit="10"/>
<path d="M64.3018 6.35312V22.6469C64.3018 23.4691 63.6225 24.1418 62.7923 24.1418H60.0754C59.2452 24.1418 58.5659 23.4691 58.5659 22.6469V6.35312C58.5659 5.53096 59.2452 4.85828 60.0754 4.85828H62.7923C63.6225 4.85828 64.3018 5.53096 64.3018 6.35312Z" stroke="#DEDEE5" stroke-width="2" stroke-miterlimit="10"/>
<path d="M67.2452 11.8093V17.1907C67.2452 17.6391 66.9433 17.9381 66.4904 17.9381H65.0565C64.6036 17.9381 64.3018 17.6391 64.3018 17.1907V11.8093C64.3018 11.3608 64.6036 11.0618 65.0565 11.0618H66.4904C66.9433 11.0618 67.2452 11.3608 67.2452 11.8093Z" stroke="#DEDEE5" stroke-width="2" stroke-miterlimit="10"/>
</g>
<defs>
<clipPath id="clip0">
<rect width="68" height="29" fill="white"/>
</clipPath>
</defs>
</svg>
