<svg width="50" height="50" viewBox="0 0 50 50" fill="none" xmlns="http://www.w3.org/2000/svg">
<g clip-path="url(#clip0)">
<path d="M49.9349 27.8023C49.7488 27.3353 49.2341 27.1189 48.7851 27.3125L45.4343 28.7818C45.3576 28.8159 45.281 28.8615 45.2043 28.9298L39.5867 33.8843L39.4881 33.6337C38.9406 32.2783 37.4842 31.595 36.1482 32.0619L35.535 32.2783L35.086 31.8L32.9397 28.087L35.4036 16.3786L36.6739 15.718C37.4513 15.308 37.9332 14.4537 37.8784 13.5426C37.8237 12.6314 37.2542 11.8455 36.422 11.538L36.9476 9.04372C37.0352 8.55397 36.7396 8.087 36.2687 7.9845C35.8088 7.88199 35.3489 8.17812 35.2284 8.65648L34.5823 11.7089L27.8259 15.2282L25.2853 12.9617L25.3291 12.7339C25.4715 11.8114 25.3072 10.8547 24.8583 10.0346C26.3585 9.9321 27.7273 9.08928 28.5486 7.77949C29.3699 6.46969 29.556 4.8296 29.0414 3.36035L32.1294 1.75443C32.5674 1.52664 32.7426 0.979941 32.5236 0.52436C32.3046 0.0687791 31.779 -0.113453 31.341 0.114337L28.1544 1.76582C26.5008 -0.295686 23.5442 -0.591813 21.5074 1.10523C19.4816 2.80226 19.1092 5.86605 20.6752 8.03005C20.4124 8.087 20.1605 8.16673 19.9196 8.26923L20.04 7.58586C20.1057 7.19862 20.0291 6.7886 19.7991 6.46969C19.5801 6.13939 19.2407 5.92299 18.8574 5.86605L14.8057 5.23962C13.6011 5.046 12.4842 5.88882 12.2761 7.14167L11.2577 13.1781L10.1408 12.9275C9.65895 12.825 9.15523 12.9162 8.73911 13.2009C8.32299 13.4856 8.03828 13.9298 7.93972 14.431L7.09654 18.8843C6.99798 19.3968 7.10749 19.9321 7.3922 20.3535C7.67691 20.7863 8.12588 21.0711 8.61866 21.1508L10.754 21.4925H10.765L15.7036 22.1872L15.6598 22.3353C15.2437 23.6109 15.5613 25.0118 16.4811 25.9572C16.514 25.9913 16.5468 26.0027 16.5687 26.0369L18.6274 32.1075L14.3567 38.8615L12.1557 41.5722C11.9805 41.7886 11.9148 42.0733 11.9695 42.3353C12.0243 42.6086 12.1885 42.8364 12.4294 42.9617L16.6673 45.2055L14.7728 46.39L2.68348 47.9617L0.76714 48.1895C0.285318 48.2465 -0.0541483 48.702 0.0115548 49.2032C0.0663074 49.7043 0.504328 50.0574 0.98615 49.9891L2.82584 49.7727L15.1671 48.1781C15.2875 48.1667 15.408 48.1212 15.5065 48.0528L27.2126 40.6952L33.3559 38.3376L39.4443 36.0027L40.0795 35.7635C40.178 35.7294 40.2656 35.6724 40.3423 35.6041L46.2337 30.4105L49.4641 28.9982C49.913 28.7932 50.1211 28.2692 49.9349 27.8023ZM35.5788 34.1804L36.7177 33.7818C37.1776 33.6223 37.6923 33.8615 37.8784 34.3285L37.9989 34.6246L33.6844 36.2761L33.553 36.3216L32.8412 34.5221L34.2757 33.5312L34.6809 33.9526C34.9218 34.2032 35.2612 34.2943 35.5788 34.1804ZM18.7369 25.1599C18.2332 25.1143 17.7842 24.8296 17.4995 24.3854C17.2258 23.9412 17.1601 23.3945 17.3134 22.9048L17.4995 22.3353H22.8762L28.5595 24.0209L31.0891 28.3945L30.6292 30.5699L28.1215 26.4127C27.9792 26.1736 27.7273 26.0141 27.4535 25.9799L18.7369 25.1599ZM22.263 20.513H17.9047L18.3099 17.9503L18.5946 17.9275C20.0619 17.7909 21.5074 17.3922 22.8543 16.7544L22.8981 16.7886L22.263 20.513ZM18.6055 16.0824L19.1202 12.825C19.2188 13.3034 19.4706 13.7248 19.821 14.0437L21.3651 15.4219C20.4781 15.7521 19.5473 15.9799 18.6055 16.0824ZM31.9104 36.9594L31.0015 37.3011L31.3629 35.5699L31.9104 36.9594ZM33.2135 32.0847L32.4251 32.6314L32.0308 32.9048L31.9651 32.7909L32.4032 30.6838L33.2135 32.0847ZM31.6366 25.8091L29.8845 22.7795C29.775 22.5859 29.5889 22.4378 29.3699 22.3695L23.9932 20.7749L24.4312 18.1781L26.0957 19.6701C26.7637 20.2738 27.7163 20.3877 28.5048 19.9777L33.3997 17.4264L31.6366 25.8091ZM35.5022 13.2692C35.6117 13.2123 35.7321 13.2009 35.8416 13.2465C35.9511 13.2806 36.0387 13.3717 36.0935 13.4742C36.203 13.702 36.1154 13.9754 35.8964 14.0893L27.7163 18.349C27.563 18.4287 27.3659 18.4059 27.2345 18.2806L23.5661 14.9891L20.9599 12.6542C20.8285 12.5289 20.7737 12.3467 20.8285 12.1645C20.8832 11.9936 21.0365 11.8683 21.2117 11.8569H21.2446C21.3541 11.8569 21.4527 11.8911 21.5293 11.9708L27.5849 17.3922L35.5022 13.2692ZM27.5959 5.02322C27.5959 6.38996 26.7637 7.60864 25.5153 8.04144C24.2669 8.47425 22.8981 8.04144 22.0987 6.94805L27.4645 4.15762C27.5521 4.44236 27.5959 4.73848 27.5959 5.02322ZM24.5297 1.83415C25.2634 1.83415 25.9752 2.11889 26.5227 2.62003L21.4746 5.23962C21.4746 5.17128 21.4527 5.10295 21.4527 5.02322C21.4636 3.26923 22.8434 1.83415 24.5297 1.83415ZM21.8359 9.78404C22.6572 9.92072 23.3252 10.5357 23.5552 11.3672L22.6791 10.5813C21.7812 9.77265 20.4343 9.86377 19.6458 10.7749C20.1167 10.0232 20.9818 9.63598 21.8359 9.78404ZM8.81576 19.2373L9.65895 14.784L8.79386 14.6132L9.76846 14.7157L10.9511 14.9777L10.1736 19.5676L8.89242 19.3626L8.81576 19.2373ZM13.9954 7.44919C14.0392 7.18723 14.2801 7.005 14.5429 7.03917L18.2551 7.60864L17.5762 11.333V11.3558L16.1417 20.4105L11.9038 19.8182L13.9954 7.44919ZM20.4233 31.9139L18.7588 26.9936L21.8907 27.2897L22.6025 32.1417L17.4995 39.8979L16.295 39.1234L20.3467 32.7225C20.4781 32.4834 20.5219 32.1872 20.4233 31.9139ZM18.4194 44.1007L14.2034 41.8683L15.2437 40.5927L17.2915 41.9025C17.3572 41.948 17.4338 41.9822 17.5105 42.005C17.5871 42.0278 17.6638 42.0392 17.7514 42.0392H17.8499C18.6493 42.0392 19.3392 42.5973 19.5473 43.3945L19.2735 43.5654L18.4194 44.1007ZM26.5337 39.0209C26.4789 39.0437 26.4351 39.0665 26.3804 39.1007L21.0694 42.4378C20.708 41.5722 20.04 40.8888 19.2078 40.513L24.2341 32.8706C24.3545 32.677 24.4093 32.4492 24.3764 32.2214L23.6756 27.4606L26.8622 27.7567L30.0817 33.1212L29.0414 38.0528L26.5337 39.0209Z" fill="#4546A3" fill-opacity="0.5"/>
</g>
<defs>
<clipPath id="clip0">
<rect width="50" height="50" fill="white"/>
</clipPath>
</defs>
</svg>
