<svg width="12" height="12" viewBox="0 0 12 12" fill="none" xmlns="http://www.w3.org/2000/svg">
<circle cx="6" cy="6" r="5.5" stroke="#FF7F56"/>
<path d="M6.5 3C6.5 2.72386 6.27614 2.5 6 2.5C5.72386 2.5 5.5 2.72386 5.5 3H6.5ZM6 7H5.5C5.5 7.18939 5.607 7.36252 5.77639 7.44721C5.94579 7.53191 6.14849 7.51363 6.3 7.4L6 7ZM8.3 5.9C8.52091 5.73431 8.56569 5.42091 8.4 5.2C8.23431 4.97909 7.92091 4.93431 7.7 5.1L8.3 5.9ZM5.5 3V7H6.5V3H5.5ZM6.3 7.4L8.3 5.9L7.7 5.1L5.7 6.6L6.3 7.4Z" fill="#FF7F56"/>
</svg>
