<svg width="10" height="15" viewBox="0 0 10 15" fill="none" xmlns="http://www.w3.org/2000/svg">
<g clip-path="url(#clip0)">
<path d="M5 0C7.7645 0 10 2.35894 10 5.27611C10 6.26651 9.74403 7.22089 9.24915 8.04922L5.27304 14.8019C5.20478 14.928 5.06826 15.018 4.91467 15.018C4.76109 15.018 4.64164 14.928 4.55631 14.8019L0.68259 7.9952C0.22184 7.18487 -0.0170689 6.2485 -0.0170689 5.29412C-3.8147e-06 2.35894 2.25256 0 5 0ZM1.41638 7.52701L4.93174 13.7215L8.54949 7.58103C8.95904 6.89676 9.18089 6.08643 9.18089 5.27611C9.18089 2.84514 7.30375 0.882353 5.01706 0.882353C2.73037 0.882353 0.853239 2.86314 0.853239 5.27611C0.836174 6.06843 1.04095 6.84274 1.41638 7.52701Z" fill="#FF7F56"/>
<path d="M4.99999 2.62906C6.38224 2.62906 7.49146 3.81753 7.49146 5.25811C7.49146 6.69869 6.38224 7.88716 4.99999 7.88716C3.58361 7.88716 2.50852 6.68068 2.50852 5.25811C2.50852 3.81753 3.61774 2.62906 4.99999 2.62906ZM4.99999 7.04082C5.92149 7.04082 6.67234 6.24851 6.67234 5.27612C6.67234 4.30373 5.92149 3.51141 4.99999 3.51141C4.07849 3.51141 3.32763 4.30373 3.32763 5.27612C3.32763 6.2305 4.06142 7.04082 4.99999 7.04082Z" fill="#FF7F56"/>
</g>
<defs>
<clipPath id="clip0">
<rect width="10" height="15" fill="white" transform="matrix(-1 0 0 1 10 0)"/>
</clipPath>
</defs>
</svg>
