<svg width="60" height="61" viewBox="0 0 60 61" fill="none" xmlns="http://www.w3.org/2000/svg">
<path d="M57.1106 31.0664L52.6414 26.6235C52.7239 26.3421 52.7593 26.049 52.7593 25.7442V18.9332C52.7593 18.2885 52.2287 17.7609 51.5801 17.7609H43.6912L35.3779 0.668891C35.201 0.317203 34.8708 0.0710213 34.4817 0.0124067C34.0925 -0.0462079 33.7034 0.10619 33.4322 0.399263L25.0245 9.89484L17.1946 7.05789C16.8998 6.95238 16.5814 6.9641 16.2984 7.09306C16.0154 7.22201 15.7913 7.46819 15.6852 7.74954L13.3386 14.1503C13.1735 14.5957 13.1145 15.0529 13.1499 15.5101L11.7467 16.2252C8.62176 17.8195 6.23978 20.4924 5.03699 23.7748L0.579605 35.9666C-0.293004 38.3464 -0.175084 40.9254 0.89799 43.2114C1.97106 45.4974 3.88137 47.2441 6.27515 48.1116L19.0341 52.7304C19.7063 52.9766 20.3902 53.0938 21.0741 53.0938C23.3028 53.0938 25.39 51.8395 26.3923 49.7176L28.6446 44.9347V50.5617C28.6446 55.7901 32.9251 60.0338 38.1726 60.0338H47.7123C52.9716 60.0338 57.2403 55.7784 57.2403 50.5617V45.7553C58.9265 44.3368 59.9996 42.2267 59.9996 39.8704V38.0533C60.0232 35.4039 58.9855 32.9304 57.1106 31.0664ZM42.9483 20.0938C42.9601 20.0938 42.9601 20.0938 42.9483 20.0938H50.4009V22.2156H43.821C43.1724 22.2156 42.6418 22.7432 42.6418 23.3879C42.6418 24.0327 43.1724 24.5602 43.821 24.5602H50.4009V25.7442C50.4009 26.26 49.9764 26.6821 49.4575 26.6821H36.4391C35.9203 26.6821 35.4958 26.26 35.4958 25.7442V20.1055L42.9483 20.0938ZM34.0336 3.2831L41.0734 17.7492H34.3166C33.668 17.7492 33.1374 18.2767 33.1374 18.9215V25.4277L31.3686 21.6412C31.5455 21.4068 31.687 21.1371 31.7813 20.8558L34.1279 14.4551C34.352 13.8455 34.0336 13.1773 33.4204 12.9545L27.4065 10.7741L34.0336 3.2831ZM15.5555 14.9709L16.1215 13.4352L23.3028 16.0377C23.4325 16.0845 23.574 16.108 23.7038 16.108C24.1872 16.108 24.6353 15.8149 24.8122 15.3343C25.0363 14.7247 24.7179 14.0565 24.1047 13.8337L16.9233 11.2312L17.4894 9.6721L31.4983 14.7364L29.5526 20.0352C29.4701 20.2696 29.2932 20.4572 29.0691 20.5627C28.8451 20.6682 28.5857 20.6799 28.3498 20.5979L16.1097 16.1666C15.8739 16.0845 15.6852 15.9087 15.5791 15.686C15.4847 15.4632 15.4729 15.2053 15.5555 14.9709ZM28.6564 39.4014L24.2698 48.7095C23.4915 50.3741 21.593 51.1478 19.8596 50.5265L7.0888 45.9077C5.28462 45.2512 3.846 43.9499 3.04414 42.2267C2.24228 40.5034 2.14794 38.5691 2.8083 36.7755L7.26568 24.6071C8.25621 21.8874 10.2373 19.66 12.8315 18.3353L14.164 17.6554C14.4942 17.9719 14.8833 18.2181 15.3314 18.3822L27.5715 22.8135C27.9371 22.9425 28.3262 23.0128 28.7036 23.0128C28.9394 23.0128 29.1635 22.9893 29.3875 22.9425L31.3332 27.0924C31.5808 27.6199 31.7813 28.1709 31.9464 28.7219C29.812 31.1954 28.6564 34.3371 28.6564 37.6078V39.4014ZM57.6648 39.8586C57.6648 42.8128 55.2474 45.216 52.2758 45.216H50.3537C48.7146 45.216 47.3821 43.8913 47.3821 42.2618C47.3821 40.6324 48.7146 39.3077 50.3537 39.3077H52.4763C53.1249 39.3077 53.6555 38.7801 53.6555 38.1354C53.6555 37.4906 53.1249 36.9631 52.4763 36.9631H50.3537C47.4175 36.9631 45.0237 39.3428 45.0237 42.2618C45.0237 45.1809 47.4175 47.5606 50.3537 47.5606H52.2758C53.1956 47.5606 54.08 47.3965 54.8937 47.1034V50.5617C54.8937 54.4889 51.6744 57.6892 47.7241 57.6892H38.1844C34.234 57.6892 31.0148 54.4889 31.0148 50.5617V37.6078C31.0148 34.7123 32.1115 31.9457 34.0925 29.8238L35.1066 28.7336C35.5194 28.9211 35.9675 29.0149 36.4509 29.0149H49.4693C50.1179 29.0149 50.7075 28.8274 51.2263 28.5108L55.4479 32.7077C56.8747 34.1261 57.6648 36.0252 57.6648 38.0299V39.8586Z" fill="#4546A3" fill-opacity="0.5"/>
<path d="M39.8247 22.556C39.6005 22.3331 39.3056 22.2158 38.987 22.2158C38.6684 22.2158 38.3735 22.3448 38.1493 22.556C37.9251 22.7788 37.8071 23.0721 37.8071 23.3888C37.8071 23.6937 37.9369 23.9987 38.1493 24.2216C38.3735 24.4444 38.6684 24.5617 38.987 24.5617C39.3056 24.5617 39.6005 24.4327 39.8247 24.2216C40.0489 23.9987 40.1669 23.7055 40.1669 23.3888C40.1669 23.0838 40.0489 22.7788 39.8247 22.556Z" fill="#4546A3" fill-opacity="0.5"/>
<path d="M14.7191 43.6805L14.6837 43.6688C14.0702 43.4459 13.3977 43.7626 13.1735 44.3726C12.9493 44.9825 13.2679 45.6511 13.8814 45.8739L13.9168 45.8857C14.0466 45.9326 14.1882 45.956 14.318 45.956C14.8017 45.956 15.25 45.6628 15.427 45.1819C15.6512 44.572 15.3326 43.9034 14.7191 43.6805Z" fill="#4546A3" fill-opacity="0.5"/>
<path d="M10.5085 42.1567L8.69252 41.5002C8.07934 41.2775 7.58407 40.832 7.31285 40.2342C7.04164 39.648 7.00626 38.9798 7.23031 38.3702C7.45436 37.7606 7.13597 37.0924 6.52279 36.8697C5.9096 36.6469 5.23746 36.9635 5.01341 37.5731C4.5771 38.7688 4.63607 40.07 5.1785 41.2306C5.72093 42.3912 6.68788 43.2704 7.89066 43.7041L9.70664 44.3606C9.83635 44.4075 9.97785 44.431 10.1076 44.431C10.591 44.431 11.0391 44.1379 11.216 43.6573C11.4401 43.0594 11.1217 42.3795 10.5085 42.1567Z" fill="#4546A3" fill-opacity="0.5"/>
</svg>
