<svg width="41" height="22" viewBox="0 0 41 22" fill="none" xmlns="http://www.w3.org/2000/svg">
<g clip-path="url(#clip0)">
<path d="M37.4 1H33.8C32.7 1 31.8 1.9 31.8 3V6.4C31.8 7.1 31.2 7.8 30.4 7.8H9.9C9.2 7.8 8.5 7.2 8.5 6.4V3C8.5 1.9 7.6 1 6.5 1H3C1.9 1 1 1.9 1 3V18.1C1 19.2 1.9 20.1 3 20.1H6.6C7.7 20.1 8.6 19.2 8.6 18.1V14.7C8.6 14 9.2 13.3 10 13.3H30.6C31.3 13.3 32 13.9 32 14.7V18.1C32 19.2 32.9 20.1 34 20.1H37.6C38.7 20.1 39.6 19.2 39.6 18.1V3C39.4 1.9 38.5 1 37.4 1Z" stroke="#DEDEE5" stroke-width="2" stroke-miterlimit="10"/>
</g>
<defs>
<clipPath id="clip0">
<rect width="40.4" height="21.1" fill="white"/>
</clipPath>
</defs>
</svg>
