<svg width="41" height="41" viewBox="0 0 41 41" fill="none" xmlns="http://www.w3.org/2000/svg">
<g clip-path="url(#clip0)">
<path d="M20.5001 33.2948C22.7956 33.2948 24.6565 31.4275 24.6565 29.1241C24.6565 26.8207 22.7956 24.9534 20.5001 24.9534C18.2046 24.9534 16.3438 26.8207 16.3438 29.1241C16.3438 31.4275 18.2046 33.2948 20.5001 33.2948Z" stroke="#4546A3" stroke-width="2" stroke-miterlimit="10"/>
<path d="M38.3229 31.881C38.3229 21.631 29.7284 13.3604 19.3728 13.9966C10.7078 14.5621 3.52225 21.419 2.74734 30.1138C2.46555 32.9414 2.88823 35.6276 3.73359 38.031C4.22672 39.3742 5.56521 40.2931 7.04459 40.2931H33.9552C35.4346 40.2931 36.7027 39.4448 37.1958 38.031C37.9003 36.1224 38.3229 34.0724 38.3229 31.881Z" stroke="#4546A3" stroke-width="2" stroke-miterlimit="10"/>
<path d="M7.60814 19.5104L1.12704 6.36208C-0.141004 3.74656 1.76106 0.706909 4.64937 0.706909L36.3504 0.777599C39.2387 0.777599 41.1408 3.81725 39.8727 6.43277L33.4621 19.581" stroke="#4546A3" stroke-width="2" stroke-miterlimit="10" stroke-linejoin="round"/>
<path d="M12.0463 15.9759L8.73534 9.26036C7.96042 7.70519 9.08757 5.79657 10.8487 5.79657L30.1511 5.86726C31.9123 5.86726 33.0395 7.70519 32.2645 9.33105L28.8831 16.1879" stroke="#4546A3" stroke-width="2" stroke-miterlimit="10" stroke-linejoin="round"/>
</g>
<defs>
<clipPath id="clip0">
<rect width="41" height="41" fill="white"/>
</clipPath>
</defs>
</svg>
