<svg width="160" height="142" viewBox="0 0 160 142" fill="none" xmlns="http://www.w3.org/2000/svg">
<g clip-path="url(#clip0)">
<path d="M160 20.9827V141.118H25.0077L3.29048 119.395V20.9827C3.29048 16.3748 6.99228 12.672 11.599 12.672H151.609C156.216 12.5897 160 16.3748 160 20.9827Z" fill="#DEDEDE"/>
<path d="M160 37.6041H3.29048V20.9826C3.29048 16.3747 6.99228 12.6719 11.599 12.6719H151.609C156.216 12.6719 159.918 16.3747 159.918 20.9826V37.6041H160Z" fill="#DEDEDE"/>
<path d="M123.393 51.428H111.959V62.8655H123.393V51.428Z" fill="#DEDEDE"/>
<path d="M105.378 51.428H93.9434V62.8655H105.378V51.428Z" fill="#DEDEDE"/>
<path d="M87.3625 51.428H75.928V62.8655H87.3625V51.428Z" fill="#DEDEDE"/>
<path d="M69.347 51.428H57.9126V62.8655H69.347V51.428Z" fill="#DEDEDE"/>
<path d="M51.3316 51.428H39.8972V62.8655H51.3316V51.428Z" fill="#DEDEDE"/>
<path d="M33.3162 51.428H21.8817V62.8655H33.3162V51.428Z" fill="#DEDEDE"/>
<path d="M141.409 70.6826H129.974V82.1202H141.409V70.6826Z" fill="#DEDEDE"/>
<path d="M123.393 70.6826H111.959V82.1202H123.393V70.6826Z" fill="#DEDEDE"/>
<path d="M105.378 70.6826H93.9434V82.1202H105.378V70.6826Z" fill="#DEDEDE"/>
<path d="M87.3625 70.6826H75.928V82.1202H87.3625V70.6826Z" fill="#DEDEDE"/>
<path d="M69.347 70.6826H57.9126V82.1202H69.347V70.6826Z" fill="#DEDEDE"/>
<path d="M51.3316 70.6826H39.8972V82.1202H51.3316V70.6826Z" fill="#DEDEDE"/>
<path d="M33.3162 70.6826H21.8817V82.1202H33.3162V70.6826Z" fill="#DEDEDE"/>
<path d="M141.409 89.855H129.974V101.293H141.409V89.855Z" fill="#DEDEDE"/>
<path d="M123.393 89.855H111.959V101.293H123.393V89.855Z" fill="#DEDEDE"/>
<path d="M105.378 89.855H93.9434V101.293H105.378V89.855Z" fill="#DEDEDE"/>
<path d="M87.3625 89.855H75.928V101.293H87.3625V89.855Z" fill="#DEDEDE"/>
<path d="M69.347 89.855H57.9126V101.293H69.347V89.855Z" fill="#DEDEDE"/>
<path d="M51.3316 89.855H39.8972V101.293H51.3316V89.855Z" fill="#DEDEDE"/>
<path d="M33.3162 89.855H21.8817V101.293H33.3162V89.855Z" fill="#DEDEDE"/>
<path d="M141.409 109.109H129.974V120.547H141.409V109.109Z" fill="#DEDEDE"/>
<path d="M123.393 109.109H111.959V120.547H123.393V109.109Z" fill="#DEDEDE"/>
<path d="M105.378 109.109H93.9434V120.547H105.378V109.109Z" fill="#DEDEDE"/>
<path d="M87.3625 109.109H75.928V120.547H87.3625V109.109Z" fill="#DEDEDE"/>
<path d="M69.347 109.109H57.9126V120.547H69.347V109.109Z" fill="#DEDEDE"/>
<path d="M40.802 26.578H27.6401V14.2354C27.6401 10.6148 30.6015 7.65259 34.2211 7.65259C37.8406 7.65259 40.802 10.6148 40.802 14.2354V26.578Z" fill="#DEDEDE"/>
<path d="M135.65 26.578H122.488V14.2354C122.488 10.6148 125.45 7.65259 129.069 7.65259C132.689 7.65259 135.65 10.6148 135.65 14.2354V26.578Z" fill="#DEDEDE"/>
<path d="M40.802 22.2169H27.6401V9.87427C27.6401 6.25375 30.6015 3.2915 34.2211 3.2915C37.8406 3.2915 40.802 6.25375 40.802 9.87427V22.2169Z" fill="#DEDEDE"/>
<path d="M135.65 22.2169H122.488V9.87427C122.488 6.25375 125.45 3.2915 129.069 3.2915C132.689 3.2915 135.65 6.25375 135.65 9.87427V22.2169Z" fill="#DEDEDE"/>
<path d="M38.2519 10.2033C38.2519 12.425 36.4421 14.2353 34.2211 14.2353C32 14.2353 30.1902 12.425 30.1902 10.2033C30.1902 7.98165 32 6.17139 34.2211 6.17139C36.4421 6.17139 38.2519 7.98165 38.2519 10.2033Z" fill="#DEDEDE"/>
<path d="M133.1 10.2033C133.1 12.425 131.29 14.2353 129.069 14.2353C126.848 14.2353 125.039 12.425 125.039 10.2033C125.039 7.98165 126.848 6.17139 129.069 6.17139C131.29 6.17139 133.1 7.98165 133.1 10.2033Z" fill="#DEDEDE"/>
<path d="M25.0077 119.395H3.29048L25.0077 141.118V119.395Z" fill="#DEDEDE"/>
<path d="M156.71 17.6912V137.827H21.7172L0 116.104V17.6912C0 13.0833 3.7018 9.38047 8.30848 9.38047H148.319C152.925 9.29818 156.71 13.0833 156.71 17.6912Z" fill="white"/>
<path d="M156.71 34.3126H0V17.6911C0 13.0832 3.7018 9.38037 8.30848 9.38037H148.319C152.925 9.38037 156.627 13.0832 156.627 17.6911V34.3126H156.71Z" fill="#4649A0"/>
<path d="M120.103 48.1365H108.668V59.574H120.103V48.1365Z" fill="#FD7F5C"/>
<path d="M102.087 48.1365H90.653V59.574H102.087V48.1365Z" fill="#BDBDBD"/>
<path d="M84.072 48.1365H72.6375V59.574H84.072V48.1365Z" fill="#BDBDBD"/>
<path d="M66.0565 48.1365H54.6221V59.574H66.0565V48.1365Z" fill="#BDBDBD"/>
<path d="M48.0411 48.1365H36.6067V59.574H48.0411V48.1365Z" fill="#BDBDBD"/>
<path d="M30.0257 48.1365H18.5913V59.574H30.0257V48.1365Z" fill="#BDBDBD"/>
<path d="M138.118 67.3911H126.684V78.8287H138.118V67.3911Z" fill="#FD7F5C"/>
<path d="M120.103 67.3911H108.668V78.8287H120.103V67.3911Z" fill="#FD7F5C"/>
<path d="M102.087 67.3911H90.653V78.8287H102.087V67.3911Z" fill="#BDBDBD"/>
<path d="M84.072 67.3911H72.6375V78.8287H84.072V67.3911Z" fill="#BDBDBD"/>
<path d="M66.0565 67.3911H54.6221V78.8287H66.0565V67.3911Z" fill="#BDBDBD"/>
<path d="M48.0411 67.3911H36.6067V78.8287H48.0411V67.3911Z" fill="#BDBDBD"/>
<path d="M30.0257 67.3911H18.5913V78.8287H30.0257V67.3911Z" fill="#BDBDBD"/>
<path d="M138.118 86.5635H126.684V98.001H138.118V86.5635Z" fill="#FD7F5C"/>
<path d="M120.103 86.5635H108.668V98.001H120.103V86.5635Z" fill="#FD7F5C"/>
<path d="M102.087 86.5635H90.653V98.001H102.087V86.5635Z" fill="#BDBDBD"/>
<path d="M84.072 86.5635H72.6375V98.001H84.072V86.5635Z" fill="#BDBDBD"/>
<path d="M66.0565 86.5635H54.6221V98.001H66.0565V86.5635Z" fill="#BDBDBD"/>
<path d="M48.0411 86.5635H36.6067V98.001H48.0411V86.5635Z" fill="#BDBDBD"/>
<path d="M30.0257 86.5635H18.5913V98.001H30.0257V86.5635Z" fill="#BDBDBD"/>
<path d="M138.118 105.818H126.684V117.255H138.118V105.818Z" fill="#FD7F5C"/>
<path d="M120.103 105.818H108.668V117.255H120.103V105.818Z" fill="#FD7F5C"/>
<path d="M102.087 105.818H90.653V117.255H102.087V105.818Z" fill="#BDBDBD"/>
<path d="M84.072 105.818H72.6375V117.255H84.072V105.818Z" fill="#BDBDBD"/>
<path d="M66.0565 105.818H54.6221V117.255H66.0565V105.818Z" fill="#BDBDBD"/>
<path d="M37.5116 23.2865H24.3496V10.9438C24.3496 7.32333 27.311 4.36108 30.9306 4.36108C34.5501 4.36108 37.5116 7.32333 37.5116 10.9438V23.2865Z" fill="#212455"/>
<path d="M132.36 23.2865H119.198V10.9438C119.198 7.32333 122.159 4.36108 125.779 4.36108C129.398 4.36108 132.36 7.32333 132.36 10.9438V23.2865Z" fill="#212455"/>
<path d="M37.5116 18.9254H24.3496V6.58276C24.3496 2.96224 27.311 0 30.9306 0C34.5501 0 37.5116 2.96224 37.5116 6.58276V18.9254Z" fill="#616161"/>
<path d="M132.36 18.9254H119.198V6.58276C119.198 2.96224 122.159 0 125.779 0C129.398 0 132.36 2.96224 132.36 6.58276V18.9254Z" fill="#616161"/>
<path d="M34.9614 6.91183C34.9614 9.13351 33.1517 10.9438 30.9306 10.9438C28.7095 10.9438 26.8997 9.13351 26.8997 6.91183C26.8997 4.69014 28.7095 2.87988 30.9306 2.87988C33.1517 2.87988 34.9614 4.69014 34.9614 6.91183Z" fill="#EEEEEE"/>
<path d="M129.81 6.91183C129.81 9.13351 128 10.9438 125.779 10.9438C123.558 10.9438 121.748 9.13351 121.748 6.91183C121.748 4.69014 123.558 2.87988 125.779 2.87988C128 2.87988 129.81 4.69014 129.81 6.91183Z" fill="#EEEEEE"/>
<path d="M21.7172 116.104H0L21.7172 137.827V116.104Z" fill="#BDBDBD"/>
</g>
<defs>
<clipPath id="clip0">
<rect width="160" height="141.118" fill="white"/>
</clipPath>
</defs>
</svg>
