<svg width="60" height="60" viewBox="0 0 60 60" fill="none" xmlns="http://www.w3.org/2000/svg">
<g clip-path="url(#clip0)">
<path d="M52.8471 7.10753C43.3797 -2.32381 27.984 -2.32381 18.5166 7.12243C11.5878 14.0358 9.51214 24.3611 13.2155 33.4199C14.1712 35.774 13.6336 38.4559 11.8267 40.2588L0.343403 51.7015C-0.119513 52.1634 -0.119513 52.9233 0.343403 53.3851L6.48079 59.5088C6.71971 59.7472 7.01837 59.8515 7.33195 59.8515C7.63061 59.8515 7.9442 59.7323 8.18312 59.5088L19.6515 48.0661C21.4584 46.2632 24.1612 45.7268 26.5654 46.6953C35.6296 50.3606 45.9482 48.2746 52.8621 41.3762C57.4464 36.8021 59.9701 30.7082 59.9701 24.2419C59.9701 17.7755 57.4464 11.6817 52.8471 7.10753ZM51.1747 39.6926C46.9785 43.8793 41.3937 46.0993 35.7043 46.0993C32.9417 46.0993 30.1343 45.5779 27.4614 44.4902C24.1762 43.1641 20.443 43.9091 17.9641 46.3824L7.33195 56.9908L2.88198 52.5508L13.5141 41.9424C16.0079 39.4542 16.7546 35.7591 15.4255 32.526C12.0806 24.3462 13.9621 15.0489 20.219 8.80606C28.7456 0.298492 42.6331 0.283593 51.1597 8.79117C55.2961 12.9183 57.5808 18.4013 57.5808 24.2419C57.5808 30.0824 55.311 35.5654 51.1747 39.6926Z" fill="#4546A3" fill-opacity="0.5"/>
<path d="M49.6366 10.3253C45.9034 6.60043 40.9607 4.5592 35.6894 4.5592C30.4181 4.5592 25.4604 6.60043 21.7421 10.3253C18.0089 14.0501 15.9631 18.9818 15.9631 24.2413C15.9631 29.5008 18.0089 34.4475 21.7421 38.1574C25.5948 42.0015 30.6421 43.9086 35.6894 43.9086C40.7367 43.9086 45.7989 41.9866 49.6366 38.1574C53.3698 34.4326 55.4156 29.5008 55.4156 24.2413C55.4156 18.9818 53.3698 14.0501 49.6366 10.3253ZM47.9492 36.4887C41.1846 43.2381 30.1792 43.2381 23.4295 36.4887C20.1593 33.2257 18.3524 28.8751 18.3524 24.2562C18.3524 19.6374 20.1593 15.2868 23.4295 12.0238C26.6998 8.76084 31.0602 6.95801 35.6894 6.95801C40.3185 6.95801 44.6789 8.76084 47.9492 12.0238C51.2195 15.2868 53.0264 19.6374 53.0264 24.2562C53.0264 28.8751 51.2344 33.2108 47.9492 36.4887Z" fill="#4546A3" fill-opacity="0.5"/>
<path d="M33.8078 25.1801C30.1194 25.1801 27.1179 28.1748 27.1179 31.855C27.1179 35.5352 30.1194 38.5299 33.8078 38.5299C37.4962 38.5299 40.4977 35.5352 40.4977 31.855C40.4977 28.1748 37.4962 25.1801 33.8078 25.1801ZM33.8078 36.146C31.4335 36.146 29.5072 34.224 29.5072 31.855C29.5072 29.486 31.4335 27.564 33.8078 27.564C36.1821 27.564 38.1085 29.486 38.1085 31.855C38.1085 34.224 36.1821 36.146 33.8078 36.146Z" fill="#4546A3" fill-opacity="0.5"/>
</g>
<defs>
<clipPath id="clip0">
<rect width="60" height="60" fill="white"/>
</clipPath>
</defs>
</svg>
