<svg width="50" height="50" viewBox="0 0 50 50" fill="none" xmlns="http://www.w3.org/2000/svg">
<g clip-path="url(#clip0)">
<path d="M44.0393 5.923C36.1498 -1.93644 23.3201 -1.93644 15.4306 5.93542C9.65654 11.6965 7.92683 20.3009 11.0129 27.85C11.8094 29.8118 11.3614 32.0467 9.85565 33.549L0.28621 43.0847C-0.0995538 43.4696 -0.0995538 44.1028 0.28621 44.4877L5.4007 49.5907C5.5998 49.7894 5.84868 49.8763 6.11 49.8763C6.35888 49.8763 6.62021 49.777 6.81931 49.5907L16.3763 40.0551C17.882 38.5527 20.1344 38.1058 22.1379 38.9128C29.6914 41.9672 38.2902 40.2289 44.0518 34.4802C47.8721 30.6685 49.9751 25.5902 49.9751 20.2016C49.9751 14.813 47.8721 9.73477 44.0393 5.923ZM42.6456 33.0772C39.1488 36.5662 34.4948 38.4162 29.7536 38.4162C27.4515 38.4162 25.112 37.9816 22.8845 37.0752C20.1468 35.9702 17.0358 36.591 14.9701 38.6521L6.11 47.4924L2.40169 43.7924L11.2618 34.9521C13.34 32.8785 13.9622 29.7993 12.8547 27.105C10.0672 20.2885 11.6351 12.5408 16.8492 7.33845C23.9547 0.248805 35.5276 0.236389 42.6332 7.32603C46.0801 10.7653 47.9841 15.3345 47.9841 20.2016C47.9841 25.0688 46.0926 29.6379 42.6456 33.0772Z" fill="#4546A3" fill-opacity="0.5"/>
<path d="M41.3638 8.60444C38.2528 5.5004 34.1339 3.79938 29.7411 3.79938C25.3484 3.79938 21.217 5.5004 18.1184 8.60444C15.0074 11.7085 13.3026 15.8182 13.3026 20.2012C13.3026 24.5841 15.0074 28.7062 18.1184 31.7979C21.329 35.0013 25.5351 36.5905 29.7411 36.5905C33.9472 36.5905 38.1657 34.9888 41.3638 31.7979C44.4748 28.6938 46.1797 24.5841 46.1797 20.2012C46.1797 15.8182 44.4748 11.7085 41.3638 8.60444ZM39.9577 30.4073C34.3205 36.0318 25.1493 36.0318 19.5246 30.4073C16.7994 27.6881 15.2937 24.0626 15.2937 20.2136C15.2937 16.3646 16.7994 12.739 19.5246 10.0199C22.2498 7.30074 25.8835 5.79838 29.7411 5.79838C33.5988 5.79838 37.2324 7.30074 39.9577 10.0199C42.6829 12.739 44.1886 16.3646 44.1886 20.2136C44.1886 24.0626 42.6954 27.6757 39.9577 30.4073Z" fill="#4546A3" fill-opacity="0.5"/>
<path d="M28.1732 20.9834C25.0995 20.9834 22.5983 23.4791 22.5983 26.5458C22.5983 29.6126 25.0995 32.1083 28.1732 32.1083C31.2468 32.1083 33.7481 29.6126 33.7481 26.5458C33.7481 23.4791 31.2468 20.9834 28.1732 20.9834ZM28.1732 30.1217C26.1946 30.1217 24.5893 28.52 24.5893 26.5458C24.5893 24.5717 26.1946 22.97 28.1732 22.97C30.1518 22.97 31.757 24.5717 31.757 26.5458C31.757 28.52 30.1518 30.1217 28.1732 30.1217Z" fill="#4546A3" fill-opacity="0.5"/>
</g>
<defs>
<clipPath id="clip0">
<rect width="50" height="50" fill="white"/>
</clipPath>
</defs>
</svg>
