<svg width="27" height="27" viewBox="0 0 27 27" fill="none" xmlns="http://www.w3.org/2000/svg">
<path d="M13.5 15.9809C17.4122 15.9809 20.7519 18.6526 21.8015 22.1832C24.0916 19.9885 25.6183 16.8397 25.6183 13.4046C25.6183 6.72516 20.2748 1.38165 13.5954 1.38165C6.91602 1.38165 1.57251 6.72516 1.57251 13.4046C1.57251 16.8397 3.00381 19.9885 5.3893 22.1832C6.24808 18.6526 9.58778 15.9809 13.5 15.9809ZM13.5 5.38929C15.6946 5.38929 17.4122 7.10684 17.4122 9.3015C17.4122 11.4962 15.6946 13.2137 13.5 13.2137C11.3053 13.2137 9.58778 11.4007 9.58778 9.3015C9.58778 7.20226 11.4008 5.38929 13.5 5.38929Z" stroke="#F0F1F1" stroke-miterlimit="10" stroke-linecap="round" stroke-linejoin="round"/>
<path d="M13.5 25.5229C20.14 25.5229 25.5229 20.14 25.5229 13.5C25.5229 6.85989 20.14 1.47705 13.5 1.47705C6.85989 1.47705 1.47705 6.85989 1.47705 13.5C1.47705 20.14 6.85989 25.5229 13.5 25.5229Z" stroke="#F0F1F1" stroke-miterlimit="10" stroke-linecap="round" stroke-linejoin="round"/>
</svg>
