<svg width="50" height="50" viewBox="0 0 50 50" fill="none" xmlns="http://www.w3.org/2000/svg">
<g clip-path="url(#clip0)">
<path d="M49.8755 1.01837C49.8382 0.534136 49.4524 0.149234 48.9671 0.111985H48.8925C48.2205 0.0623207 42.1852 -0.322581 34.7187 0.94387C30.4131 1.66401 26.4435 2.8063 22.8969 4.30866C18.4793 6.19592 14.7088 8.66674 11.6849 11.6839C8.67345 14.6886 6.18465 18.4507 4.29316 22.8709C2.775 26.4095 1.64259 30.3827 0.92084 34.6662C-0.336005 42.1035 0.0373155 48.1378 0.0870915 48.7959V48.8704C0.124423 49.3546 0.510188 49.7395 0.995504 49.7767C1.1075 49.7892 2.27724 49.8761 4.19361 49.8761C6.64508 49.8761 10.3161 49.7271 14.5221 49.069C18.9398 48.3737 23.0338 47.2563 26.6799 45.7415C31.2718 43.8418 35.1667 41.3089 38.2653 38.2049C41.3638 35.1132 43.9149 31.2145 45.8188 26.6454C47.337 23.0074 48.4569 18.9225 49.1538 14.5148C50.3484 7.04022 49.9004 1.26669 49.8755 1.01837ZM2.88699 35.0015C4.47982 25.6397 7.91437 18.2645 13.1035 13.0993C18.2927 7.92177 25.6844 4.4949 35.0672 2.90563C39.211 2.21032 42.8945 2.02408 45.3957 2.01166C41.6749 4.33349 35.6769 8.36875 29.1314 13.9064C27.8372 12.9255 26.2319 12.3419 24.4898 12.3419C23.9422 12.3419 23.4943 12.7889 23.4943 13.3352C23.4943 13.8815 23.9422 14.3285 24.4898 14.3285C25.6222 14.3285 26.6924 14.6638 27.5759 15.2473C26.543 16.1537 25.4977 17.0849 24.44 18.0658C23.208 17.2215 21.7148 16.7124 20.097 16.7124C19.5495 16.7124 19.1015 17.1594 19.1015 17.7057C19.1015 18.252 19.5495 18.699 20.097 18.699C21.1299 18.699 22.113 18.9846 22.9467 19.4688C22.3619 20.0276 21.777 20.5987 21.1921 21.1823C20.7815 21.592 20.3708 22.0017 19.9726 22.4239C18.7531 21.592 17.2723 21.1202 15.6919 21.1202C15.1443 21.1202 14.6963 21.5672 14.6963 22.1135C14.6963 22.6598 15.1443 23.1068 15.6919 23.1068C16.7372 23.1068 17.7202 23.3923 18.5664 23.889C10.5898 32.332 4.92781 40.626 1.99102 45.3069C2.00347 42.7988 2.19013 39.1361 2.88699 35.0015ZM47.1876 14.2664C46.1299 20.9091 43.4918 30.2088 36.8716 36.8142C30.2514 43.4197 20.9308 46.0519 14.2733 47.1073C9.24588 47.9019 4.9527 47.9391 2.73766 47.8771C5.23891 43.7425 11.212 34.5545 20.0722 25.1679C20.8686 26.1487 21.3539 27.3904 21.3539 28.7437C21.3539 29.29 21.8019 29.737 22.3494 29.737C22.8969 29.737 23.3449 29.29 23.3449 28.7437C23.3449 26.8192 22.6356 25.0685 21.4534 23.7276C21.8268 23.3427 22.2125 22.9578 22.5983 22.5729C23.2205 21.9521 23.8427 21.3437 24.4649 20.7477C25.2738 21.7286 25.7591 22.9826 25.7591 24.3484C25.7591 24.8947 26.2071 25.3417 26.7546 25.3417C27.3021 25.3417 27.7501 24.8947 27.7501 24.3484C27.7501 22.4611 27.0532 20.7229 25.9084 19.3819C26.9537 18.4135 27.9865 17.4822 29.0194 16.5883C29.7287 17.5319 30.1394 18.699 30.1394 19.9655C30.1394 20.5118 30.5873 20.9588 31.1349 20.9588C31.6824 20.9588 32.1304 20.5118 32.1304 19.9655C32.1304 18.2024 31.5331 16.5883 30.5251 15.297C37.9293 9.05164 44.5868 4.76806 47.9467 2.74422C48.0214 4.9543 47.9841 9.2503 47.1876 14.2664Z" fill="#4546A3" fill-opacity="0.5"/>
<path d="M15.2688 42.4138C14.6217 42.5131 13.9995 42.6248 13.3897 42.7366C12.1204 42.9601 10.9134 43.1836 9.89295 43.2332C9.34542 43.2581 8.92232 43.7299 8.94721 44.2762C8.9721 44.8101 9.42008 45.2198 9.94273 45.2198C9.95517 45.2198 9.98006 45.2198 9.99251 45.2198C11.1374 45.1577 12.4066 44.9342 13.7382 44.6983C14.3355 44.5866 14.9452 44.4873 15.5674 44.3879C16.115 44.301 16.4758 43.792 16.3887 43.2581C16.3265 42.6993 15.8163 42.3268 15.2688 42.4138Z" fill="#4546A3" fill-opacity="0.5"/>
<path d="M33.4371 34.2811C29.4799 38.2295 23.8925 40.303 20.9184 41.1845C20.3958 41.3459 20.0971 41.8922 20.2464 42.4137C20.3709 42.8483 20.7691 43.1214 21.2046 43.1214C21.3042 43.1214 21.3913 43.109 21.4908 43.0842C24.6516 42.153 30.5874 39.9429 34.8557 35.6841C35.2415 35.2992 35.2415 34.666 34.8557 34.2811C34.4575 33.8962 33.8353 33.8962 33.4371 34.2811Z" fill="#4546A3" fill-opacity="0.5"/>
</g>
<defs>
<clipPath id="clip0">
<rect width="50" height="50" fill="white"/>
</clipPath>
</defs>
</svg>
