<svg width="60" height="60" viewBox="0 0 60 60" fill="none" xmlns="http://www.w3.org/2000/svg">
<g clip-path="url(#clip0)">
<path d="M59.8506 1.22204C59.8058 0.640963 59.3429 0.179081 58.7605 0.134383H58.6709C57.8646 0.0747848 50.6222 -0.387097 41.6625 1.13264C36.4957 1.99681 31.7322 3.36756 27.4763 5.17039C22.1752 7.4351 17.6505 10.4001 14.0219 14.0206C10.4081 17.6263 7.42156 22.1408 5.15177 27.445C3.32997 31.6914 1.97109 36.4592 1.10498 41.5995C-0.40323 50.5242 0.0447541 57.7654 0.104485 58.555V58.6444C0.149284 59.2255 0.612201 59.6874 1.19458 59.7321C1.32897 59.747 2.73266 59.8513 5.03231 59.8513C7.97407 59.8513 12.3792 59.6725 17.4265 58.8828C22.7277 58.0485 27.6406 56.7075 32.0159 54.8898C37.5261 52.6102 42.2001 49.5707 45.9183 45.8458C49.6366 42.1359 52.6978 37.4575 54.9825 31.9745C56.8043 27.6089 58.1483 22.707 58.9845 17.4177C60.4181 8.44826 59.8805 1.52003 59.8506 1.22204ZM3.46437 42.0018C5.37576 30.7676 9.49722 21.9173 15.7242 15.7192C21.9512 9.50612 30.8213 5.39388 42.0806 3.48675C47.0532 2.65239 51.4733 2.42889 54.4748 2.414C50.0099 5.20019 42.8123 10.0425 34.9576 16.6876C33.4046 15.5106 31.4783 14.8103 29.3877 14.8103C28.7307 14.8103 28.1931 15.3467 28.1931 16.0023C28.1931 16.6578 28.7307 17.1942 29.3877 17.1942C30.7466 17.1942 32.0308 17.5965 33.091 18.2968C31.8516 19.3844 30.5973 20.5019 29.328 21.679C27.8496 20.6658 26.0577 20.0549 24.1164 20.0549C23.4594 20.0549 22.9218 20.5913 22.9218 21.2469C22.9218 21.9024 23.4594 22.4388 24.1164 22.4388C25.3559 22.4388 26.5355 22.7815 27.536 23.3626C26.8342 24.0331 26.1324 24.7184 25.4305 25.4187C24.9377 25.9104 24.445 26.4021 23.9671 26.9087C22.5037 25.9104 20.7267 25.3442 18.8302 25.3442C18.1732 25.3442 17.6356 25.8806 17.6356 26.5362C17.6356 27.1917 18.1732 27.7281 18.8302 27.7281C20.0846 27.7281 21.2643 28.0708 22.2797 28.6668C12.7078 38.7984 5.91335 48.7512 2.3892 54.3683C2.40414 51.3586 2.62813 46.9633 3.46437 42.0018ZM56.6251 17.1197C55.3558 25.0909 52.1901 36.2506 44.2458 44.1771C36.3016 52.1036 25.1169 55.2623 17.1279 56.5287C11.095 57.4823 5.94321 57.527 3.28517 57.4525C6.28667 52.491 13.4544 41.4654 24.0866 30.2014C25.0423 31.3785 25.6246 32.8684 25.6246 34.4925C25.6246 35.148 26.1622 35.6844 26.8193 35.6844C27.4763 35.6844 28.0139 35.148 28.0139 34.4925C28.0139 32.1831 27.1627 30.0822 25.7441 28.4731C26.1921 28.0112 26.655 27.5493 27.1179 27.0874C27.8646 26.3425 28.6112 25.6124 29.3578 24.8972C30.3285 26.0743 30.9109 27.5791 30.9109 29.2181C30.9109 29.8736 31.4484 30.41 32.1055 30.41C32.7625 30.41 33.3001 29.8736 33.3001 29.2181C33.3001 26.9534 32.4639 24.8674 31.09 23.2583C32.3444 22.0961 33.5838 20.9787 34.8232 19.9059C35.6744 21.0383 36.1672 22.4388 36.1672 23.9586C36.1672 24.6141 36.7048 25.1505 37.3618 25.1505C38.0189 25.1505 38.5564 24.6141 38.5564 23.9586C38.5564 21.8429 37.8397 19.9059 36.6301 18.3564C45.5151 10.862 53.5042 5.72167 57.536 3.29306C57.6256 5.94516 57.5808 11.1004 56.6251 17.1197Z" fill="#4546A3" fill-opacity="0.5"/>
<path d="M18.3226 50.8966C17.5461 51.0158 16.7994 51.1498 16.0677 51.2839C14.5446 51.5521 13.0961 51.8203 11.8716 51.8799C11.2146 51.9097 10.7069 52.4759 10.7367 53.1315C10.7666 53.7721 11.3042 54.2638 11.9314 54.2638C11.9463 54.2638 11.9761 54.2638 11.9911 54.2638C13.3649 54.1893 14.888 53.9211 16.4859 53.6381C17.2026 53.504 17.9343 53.3848 18.681 53.2656C19.338 53.1613 19.7711 52.5504 19.6665 51.9097C19.5919 51.2392 18.9796 50.7923 18.3226 50.8966Z" fill="#4546A3" fill-opacity="0.5"/>
<path d="M40.1244 41.1373C35.3758 45.8753 28.671 48.3635 25.102 49.4214C24.4748 49.6151 24.1164 50.2707 24.2956 50.8964C24.445 51.4179 24.9228 51.7457 25.4455 51.7457C25.5649 51.7457 25.6695 51.7308 25.7889 51.701C29.5819 50.5835 36.7048 47.9314 41.8267 42.8209C42.2897 42.3591 42.2897 41.5992 41.8267 41.1373C41.3489 40.6754 40.6023 40.6754 40.1244 41.1373Z" fill="#4546A3" fill-opacity="0.5"/>
</g>
<defs>
<clipPath id="clip0">
<rect width="60" height="60" fill="white"/>
</clipPath>
</defs>
</svg>
