<svg width="26" height="26" viewBox="0 0 26 26" fill="none" xmlns="http://www.w3.org/2000/svg">
<path d="M13.0141 17.1981C15.3888 17.1981 17.3138 15.3427 17.3138 13.0539C17.3138 10.7651 15.3888 8.90961 13.0141 8.90961C10.6394 8.90961 8.71436 10.7651 8.71436 13.0539C8.71436 15.3427 10.6394 17.1981 13.0141 17.1981Z" stroke="#F2F2F2" stroke-miterlimit="10"/>
<path d="M24.5554 15.9258L22.6319 14.8715C22.745 14.2899 22.8204 13.6719 22.8204 13.0539C22.8204 12.3632 22.745 11.7088 22.5941 11.0544L24.5554 9.96385C24.9703 9.70938 25.1212 9.20044 24.8949 8.80055L22.5564 4.91077C22.2924 4.51089 21.7644 4.36547 21.3495 4.58359L19.2751 5.74689C18.3321 4.98348 17.2383 4.36547 16.0314 4.00194V1.60264C16.0314 1.13005 15.6165 0.730164 15.1262 0.730164H10.5247C10.0344 0.730164 9.6195 1.13005 9.6195 1.60264V4.111C8.48799 4.51089 7.43191 5.09254 6.52671 5.85595L4.45227 4.69265C4.03738 4.40183 3.47163 4.54724 3.20761 4.98348L0.906873 8.8369C0.642854 9.23679 0.793722 9.78209 1.24633 10.0002L3.28304 11.1272C3.16989 11.7452 3.09446 12.3632 3.09446 13.0175C3.09446 13.5992 3.16989 14.1808 3.24533 14.7261L1.20861 15.8531C0.793722 16.1075 0.642854 16.6165 0.869156 17.0164L3.16989 20.8698C3.43391 21.2697 3.96195 21.4151 4.37684 21.197L6.37584 20.1064C7.31876 20.9061 8.41256 21.5605 9.65722 21.9604V24.1416C9.65722 24.6142 10.0721 25.014 10.5624 25.014H15.1639C15.6542 25.014 16.0691 24.6142 16.0691 24.1416V21.9967C17.3138 21.5968 18.4453 20.9425 19.4259 20.1427L21.3495 21.197C21.7644 21.4514 22.3301 21.306 22.5564 20.8698L24.8572 17.0164C25.1212 16.6892 24.9703 16.1439 24.5554 15.9258Z" stroke="#F0F1F1" stroke-miterlimit="10"/>
</svg>
