<svg width="50" height="50" viewBox="0 0 50 50" fill="none" xmlns="http://www.w3.org/2000/svg">
<g clip-path="url(#clip0)">
<path d="M49.9903 0.712891L49.961 0.0292969L49.2774 8.90577e-10C49.2676 8.90577e-10 49.1407 -0.00976562 48.9063 -0.00976562C47.7051 -0.00976562 43.3399 0.136719 37.5782 2.02148C30.2735 4.42383 23.6036 8.59375 17.7735 14.4141C13.1543 19.0332 8.64262 24.6777 5.40043 29.9121C2.83207 34.0527 -0.185509 39.9121 0.00980389 44.3457L0.0195695 44.6387L5.36137 49.9805L5.65434 49.9902C5.79105 50 5.92777 50 6.06449 50C10.5469 50 16.3086 46.9727 20.3614 44.4336C25.5079 41.2012 31.0547 36.7578 35.586 32.2266C39.0332 28.7793 41.9336 24.9902 44.209 20.9473C46.0352 17.7148 47.461 14.3164 48.4571 10.8496C50.1563 4.92188 50 0.888672 49.9903 0.712891ZM47.002 10.498C46.0352 13.8477 44.6485 17.1289 42.8809 20.2539C40.6739 24.1602 37.8614 27.832 34.5313 31.1719C30.0782 35.625 24.6289 40 19.5703 43.1641C14.0723 46.6211 9.27738 48.5156 6.05473 48.5156C6.03519 48.5156 6.01566 48.5156 5.99613 48.5156L1.48441 44.0039C1.46488 40.8301 3.29105 36.1328 6.66019 30.7031C9.85355 25.5664 14.2871 20.0098 18.8282 15.4688C24.4922 9.80469 30.9571 5.76172 38.0567 3.4375C43.0762 1.79688 46.9727 1.52344 48.5157 1.48438C48.4766 2.88086 48.252 6.20117 47.002 10.498Z" fill="#4546A3" fill-opacity="0.5"/>
<path d="M29.541 31.8261C28.8379 32.4609 28.125 33.0859 27.3926 33.7109C27.0801 33.9746 27.041 34.4433 27.3047 34.7558C27.5684 35.0683 28.0371 35.1172 28.3594 34.8437C29.1016 34.2187 29.8242 33.5742 30.5371 32.9297C30.8398 32.6562 30.8691 32.1777 30.5859 31.875C30.3027 31.5722 29.8438 31.5527 29.541 31.8261Z" fill="#4546A3" fill-opacity="0.5"/>
<path d="M46.0839 3.90629C45.6835 3.85746 45.3222 4.14067 45.2636 4.54106C45.0195 6.2891 44.6289 8.07621 44.1015 9.87309C43.1933 12.9786 41.8847 16.0254 40.2441 18.9258C38.1835 22.5586 35.5566 25.9766 32.4414 29.0918C32.3144 29.2188 32.1777 29.3555 32.041 29.4825C31.748 29.7657 31.748 30.2344 32.0312 30.5274C32.3144 30.8204 32.7929 30.8301 33.0859 30.5372C33.2226 30.4004 33.3593 30.2637 33.496 30.1368C36.6992 26.9336 39.414 23.4082 41.5429 19.6582C43.2519 16.6602 44.5898 13.5059 45.5371 10.293C46.0839 8.42778 46.4941 6.57231 46.748 4.74614C46.7871 4.32621 46.4941 3.95512 46.0839 3.90629Z" fill="#4546A3" fill-opacity="0.5"/>
</g>
<defs>
<clipPath id="clip0">
<rect width="50" height="50" fill="white"/>
</clipPath>
</defs>
</svg>
