<svg width="50" height="39" viewBox="0 0 50 39" fill="none" xmlns="http://www.w3.org/2000/svg">
<g clip-path="url(#clip0)">
<path d="M36.6155 8.29004C32.9529 8.29004 29.9751 11.2678 29.9751 14.9304C29.9751 18.593 32.9529 21.5708 36.6155 21.5708C40.2781 21.5708 43.2559 18.593 43.2559 14.9304C43.2559 11.2678 40.2781 8.29004 36.6155 8.29004ZM36.6155 19.9107C33.8659 19.9107 31.6352 17.6799 31.6352 14.9304C31.6352 12.1809 33.8659 9.95013 36.6155 9.95013C39.365 9.95013 41.5958 12.1809 41.5958 14.9304C41.5958 17.6799 39.365 19.9107 36.6155 19.9107Z" fill="#4546A3" fill-opacity="0.5"/>
<path d="M46.774 27.3807C45.612 26.7997 44.2216 26.7997 43.0596 27.3807L39.3866 29.2172C39.2413 29.2898 39.0857 29.3417 38.9301 29.3832C38.9093 29.3521 38.8886 29.321 38.8574 29.2898L23.6779 14.1L32.2171 5.56086C32.5387 5.23922 32.5387 4.71006 32.2171 4.38842L28.0668 0.238181C27.7452 -0.0834626 27.216 -0.0834626 26.8944 0.238181L12.7836 14.349C12.4619 14.6706 12.4619 15.1998 12.7836 15.5214L19.6626 22.4005L12.877 29.1861L12.8251 29.2172C12.1195 29.57 11.2999 29.57 10.5943 29.2172L6.92136 27.3807C5.75929 26.7997 4.36896 26.7997 3.2069 27.3807L0.467741 28.7503C0.0527169 28.9578 -0.113293 29.4559 0.0942193 29.8605C0.301731 30.2755 0.79976 30.4415 1.20441 30.234L3.95394 28.8541C4.64911 28.5013 5.48953 28.5013 6.18469 28.8541L9.85766 30.6906C11.0197 31.2716 12.4101 31.2716 13.5721 30.6906L13.7485 30.6075L17.2451 28.8645C17.9402 28.5117 18.7807 28.5117 19.4758 28.8645L22.9724 30.6075L23.1488 30.6906C24.3109 31.2716 25.7012 31.2716 26.8633 30.6906L27.0396 30.6075L30.5362 28.8645C31.2314 28.5117 32.0718 28.5117 32.767 28.8645L36.2635 30.6075L36.4399 30.6906C37.021 30.9811 37.6539 31.1263 38.2972 31.1263C38.9405 31.1263 39.5734 30.9811 40.1544 30.6906L43.8274 28.8541C44.5225 28.5013 45.3629 28.5013 46.0581 28.8541L48.8076 30.234C49.2227 30.4415 49.7207 30.2755 49.9178 29.8605C50.1253 29.4455 49.9593 28.9475 49.5443 28.7503L46.774 27.3807ZM33.4933 27.3807C32.3312 26.7997 30.9409 26.7997 29.7788 27.3807L26.2822 29.1238L26.1058 29.2068C25.4107 29.5596 24.5703 29.5596 23.8751 29.2068L23.6987 29.1238L20.2021 27.3807C20.005 27.277 19.7975 27.2044 19.59 27.1421C19.5381 27.1213 19.4862 27.111 19.4343 27.1006C19.2268 27.0487 19.0193 26.9968 18.8014 26.9761C18.7703 26.9761 18.7495 26.9761 18.7184 26.9657C18.6043 26.945 18.4798 26.9346 18.3553 26.945C18.2204 26.9553 18.0959 26.9553 17.9714 26.9657C17.7535 26.9865 17.5356 27.0176 17.3281 27.0695L21.4057 22.9919C21.7273 22.6702 21.7273 22.1411 21.4057 21.8194L14.5267 14.93L27.4858 1.99166L30.4636 4.96945L21.9245 13.5086C21.6028 13.8302 21.6028 14.3594 21.9245 14.681L35.7344 28.4909L33.4933 27.3807Z" fill="#4546A3" fill-opacity="0.5"/>
<path d="M46.7732 34.4574C45.6112 33.8763 44.2208 33.8763 43.0588 34.4574L39.3858 36.2939C38.6906 36.6466 37.8502 36.6466 37.1551 36.2939L33.4821 34.4574C32.32 33.8763 30.9297 33.8763 29.7676 34.4574L26.0947 36.2939C25.3995 36.6466 24.5591 36.6466 23.8639 36.2939L20.191 34.4574C19.0289 33.8763 17.6386 33.8763 16.4765 34.4574L12.8035 36.2939C12.1084 36.6466 11.2679 36.6466 10.5728 36.2939L6.89982 34.4574C5.73775 33.8763 4.34742 33.8763 3.18535 34.4574L0.466947 35.8373C0.0519235 36.0448 -0.114086 36.5429 0.0934259 36.9475C0.300938 37.3626 0.798966 37.5286 1.20361 37.3211L3.95315 35.9411C4.64831 35.5883 5.48874 35.5883 6.1839 35.9411L9.85686 37.7776C11.0189 38.3586 12.4093 38.3586 13.5713 37.7776L17.2443 35.9411C17.9395 35.5883 18.7799 35.5883 19.475 35.9411L23.148 37.7776C24.3101 38.3586 25.7004 38.3586 26.8625 37.7776L30.5354 35.9411C31.2306 35.5883 32.071 35.5883 32.7662 35.9411L36.4391 37.7776C37.0202 38.0681 37.6531 38.2134 38.2964 38.2134C38.9397 38.2134 39.5726 38.0681 40.1536 37.7776L43.8266 35.9411C44.5217 35.5883 45.3622 35.5883 46.0573 35.9411L48.8068 37.3211C49.2219 37.5286 49.7199 37.3626 49.917 36.9475C50.1246 36.5325 49.9585 36.0345 49.5435 35.8373L46.7732 34.4574Z" fill="#4546A3" fill-opacity="0.5"/>
</g>
<defs>
<clipPath id="clip0">
<rect width="50" height="38.2133" fill="white"/>
</clipPath>
</defs>
</svg>
