<svg width="50" height="50" viewBox="0 0 50 50" fill="none" xmlns="http://www.w3.org/2000/svg">
<g clip-path="url(#clip0)">
<path d="M42.6793 7.32072C37.9607 2.60209 31.6733 0 25 0C19.9328 0 15.0647 1.50647 10.8939 4.35757C6.83516 7.13396 3.69771 11.006 1.84263 15.5503C0.62251 18.5508 0 21.738 0 25C0 28.262 0.62251 31.4492 1.85508 34.4497C3.71016 38.994 6.83516 42.866 10.9064 45.6424C15.0647 48.4935 19.9452 50 25.0124 50C31.6858 50 37.9731 47.3979 42.6917 42.6793C47.4104 37.9607 50.0125 31.6733 50.0125 25C50 18.3267 47.3979 12.0393 42.6793 7.32072ZM1.99203 25C1.99203 22.1863 2.49004 19.4472 3.48606 16.8451C6.1504 16.4716 8.35408 15.6125 10.4955 14.7784C13.2968 13.6828 15.9487 12.6494 19.5717 12.6494C26.382 12.6494 31.9223 18.1897 31.9223 25C31.9223 31.8103 26.382 37.3506 19.5717 37.3506C15.9363 37.3506 13.2968 36.3172 10.4955 35.2216C8.35408 34.3874 6.1504 33.5284 3.48606 33.1549C2.49004 30.5528 1.99203 27.8137 1.99203 25ZM25 48.008C16.2226 48.008 8.34163 43.0901 4.44472 35.3461C6.3496 35.7445 8.01793 36.3919 9.77341 37.0767C12.6245 38.1848 15.5627 39.3302 19.5717 39.3302C27.4776 39.3302 33.9143 32.8934 33.9143 24.9875C33.9143 17.0817 27.4776 10.6449 19.5717 10.6449C15.5627 10.6449 12.6245 11.7903 9.77341 12.8984C8.01793 13.5832 6.3496 14.2306 4.44472 14.629C8.34163 6.90986 16.2226 1.99203 25 1.99203C37.6868 1.99203 48.008 12.3132 48.008 25C48.008 37.6868 37.6868 48.008 25 48.008Z" fill="#4546A3" fill-opacity="0.5"/>
<path d="M31.8974 4.85555C31.3745 4.68125 30.8142 4.95515 30.6275 5.46561C30.4532 5.98852 30.7271 6.54878 31.2375 6.73553C39.0563 9.43722 44.3102 16.8202 44.3102 25.0996C44.3102 25.6474 44.7584 26.0956 45.3063 26.0956C45.8541 26.0956 46.3023 25.6474 46.3023 25.0996C46.3147 15.9736 40.5254 7.83115 31.8974 4.85555Z" fill="#4546A3" fill-opacity="0.5"/>
<path d="M43.4637 33.6778C42.9781 33.4163 42.3805 33.6155 42.119 34.1011C40.762 36.6783 38.8073 38.9691 36.4666 40.7121C36.0184 41.0358 35.9313 41.6584 36.255 42.1066C36.4542 42.368 36.753 42.505 37.0518 42.505C37.2635 42.505 37.4627 42.4427 37.6494 42.3058C40.239 40.3884 42.3929 37.861 43.887 35.0224C44.136 34.5368 43.9492 33.9392 43.4637 33.6778Z" fill="#4546A3" fill-opacity="0.5"/>
</g>
<defs>
<clipPath id="clip0">
<rect width="50" height="50" fill="white"/>
</clipPath>
</defs>
</svg>
