<svg width="60" height="60" viewBox="0 0 60 60" fill="none" xmlns="http://www.w3.org/2000/svg">
<path d="M21.3197 33.1674C21.5139 32.9283 21.7081 32.6893 21.8874 32.4502C22.0219 32.271 22.1713 32.0917 22.3207 31.8975C21.992 32.3158 21.6484 32.7341 21.3197 33.1674Z" fill="#4546A3" fill-opacity="0.5"/>
<path d="M22.3207 31.8975C22.3357 31.8825 21.4243 33.018 21.2749 33.2122C21.3496 33.1226 21.6484 32.7491 22.3207 31.8975Z" fill="#4546A3" fill-opacity="0.5"/>
<path d="M51.2151 8.78486C45.5528 3.12251 38.008 0 30 0C21.992 0 14.4472 3.12251 8.78486 8.78486C3.12251 14.4472 0 21.992 0 30C0 38.008 3.12251 45.5528 8.78486 51.2151C14.4472 56.8775 21.992 60 30 60C38.008 60 45.5528 56.8775 51.2151 51.2151C56.8775 45.5528 60 38.008 60 30C60 21.992 56.8775 14.4472 51.2151 8.78486ZM57.5946 29.4024C56.4442 27.9532 55.2191 26.5339 53.9492 25.1444C53.994 25.0249 54.0239 24.9054 54.0239 24.7709C54.1434 18.6902 49.751 12.0269 46.1952 7.6494C52.9482 12.5647 57.4153 20.4681 57.5946 29.4024ZM39.9203 4.24303C39.9801 4.36255 40.0548 4.48207 40.1594 4.57171C40.2639 4.6763 50.0647 14.1335 51.4542 22.5896C49.5269 20.6773 47.495 18.8695 45.4333 17.2261C45.4183 17.2112 45.4183 17.2112 45.4034 17.2112C44.2082 14.8954 42.7291 12.6544 41.0259 10.5478C40.1145 9.42729 39.1434 8.33665 38.1126 7.32072C37.1116 6.31972 36.0508 5.36355 34.9452 4.46713C34.1086 3.77988 33.242 3.13745 32.3456 2.5249C35.005 2.71912 37.5448 3.31673 39.9203 4.24303ZM39.6663 12.6394C40.8466 14.1633 41.9074 15.747 42.8187 17.3904C40.9661 18.0329 39.1584 18.7948 37.4104 19.6614C35.6026 20.5578 33.6753 21.5438 32.0767 22.8137C28.1474 25.503 24.8755 28.7898 21.8875 32.4502C19.6614 35.3337 17.7938 38.4861 16.3297 41.8177C14.6564 40.7869 13.0428 39.6215 11.504 38.3068C16.3297 25.7869 26.7729 16.2699 39.6663 12.6394ZM9.60657 36.5886C9.47211 36.4542 9.35259 36.3347 9.21813 36.2002C7.94821 34.9303 6.75299 33.5558 5.67729 32.1365C10.5627 19.6912 21.0508 10.2341 33.9143 6.67829C34.7809 7.41036 35.6325 8.18725 36.4392 8.99402C36.9771 9.53187 37.5 10.0847 38.008 10.6524C31.6882 12.5946 25.8018 15.9562 20.9014 20.4382C16.001 24.9203 12.1165 30.4631 9.60657 36.5886ZM27.7888 2.48008C29.0886 3.18227 30.3586 3.98904 31.5986 4.87052C19.2878 8.81474 9.21813 17.9283 4.06375 29.8058C3.51096 28.9542 3.00299 28.0727 2.53984 27.2062C3.86952 14.0139 14.5219 3.54084 27.7888 2.48008ZM4.21315 39.5767C4.16833 39.5319 4.10857 39.4721 4.0488 39.4422C3.16733 37.007 2.61454 34.4074 2.4502 31.7181C2.749 32.1663 3.04781 32.5996 3.37649 33.0329C4.63147 34.7361 6.03586 36.3795 7.54482 37.9034C8.11255 38.4711 8.69522 39.0239 9.30777 39.5618C11.4442 41.4741 13.745 43.1325 16.1504 44.492C17.7938 46.6434 19.6016 48.7351 21.5289 50.752C13.252 48.9293 4.30279 39.6813 4.21315 39.5767ZM7.14143 45.4781C11.4442 49.004 18.0627 53.4412 24.1584 53.4412C24.1733 53.4412 24.2032 53.4412 24.2181 53.4412C25.757 54.9054 27.3556 56.2948 28.9841 57.5946C19.9004 57.251 11.9373 52.5299 7.14143 45.4781ZM39.502 55.9213C39.3078 55.996 39.1135 56.0558 38.9044 56.1305C38.8894 56.1305 38.8894 56.1305 38.8745 56.1454C36.8875 56.8177 34.8257 57.2659 32.7341 57.4751C29.8506 55.3536 27.0418 52.9333 24.3974 50.2888C22.1863 48.0777 20.1245 45.747 18.257 43.3416C18.2719 43.3267 18.2719 43.2968 18.2869 43.2819C19.6016 40.1743 21.2898 37.246 23.3068 34.5269C25.8616 37.3954 28.6106 40.3088 31.494 43.1922C35.4831 47.1813 39.4721 50.8715 43.3416 54.1584C42.1315 54.8307 40.8466 55.4283 39.502 55.9213ZM51.4841 44.3128C51.8875 44.7908 52.2908 45.254 52.6793 45.7171C50.7371 48.496 48.3018 50.9163 45.508 52.8287C41.5339 49.497 37.2908 45.5827 33.1972 41.504C30.239 38.5458 27.4153 35.5428 24.8008 32.5996C27.1165 29.8207 29.7759 27.3556 32.7191 25.249C35.5727 27.7888 38.4562 30.5229 41.3247 33.3765C44.3128 36.3645 47.2112 39.4422 49.8556 42.4303L51.4841 44.3128ZM51.0807 40.2191C48.5707 37.4104 45.8665 34.5568 43.0129 31.6882C40.2789 28.9542 37.5149 26.3396 34.7809 23.8894C37.7689 21.992 40.9811 20.498 44.3426 19.4074C44.3426 19.4074 44.3426 19.4074 44.3576 19.4074C46.3297 21.006 48.2719 22.754 50.1096 24.6066C52.8137 27.3108 55.2789 30.1793 57.4303 33.1375C56.997 36.9173 55.8167 40.4582 54.0239 43.6255C53.6205 43.1474 53.2022 42.6544 52.7839 42.1763L51.0807 40.2191Z" fill="#4546A3" fill-opacity="0.5"/>
<path d="M21.2749 33.2122C21.2749 33.227 21.26 33.227 21.2749 33.2122C21.26 33.227 21.2749 33.227 21.2749 33.2122Z" fill="#4546A3" fill-opacity="0.5"/>
<path d="M21.2599 33.2271C21.2451 33.2419 21.2451 33.2419 21.2599 33.2271V33.2271Z" fill="#4546A3" fill-opacity="0.5"/>
</svg>
