<svg width="50" height="50" viewBox="0 0 50 50" fill="none" xmlns="http://www.w3.org/2000/svg">
<path d="M17.7664 27.6394C17.9283 27.4402 18.0901 27.241 18.2395 27.0418C18.3516 26.8924 18.4761 26.743 18.6006 26.5812C18.3267 26.9298 18.0403 27.2784 17.7664 27.6394Z" fill="#4546A3" fill-opacity="0.5"/>
<path d="M18.6006 26.5812C18.6131 26.5688 17.8536 27.515 17.7291 27.6768C17.7914 27.6021 18.0404 27.2909 18.6006 26.5812Z" fill="#4546A3" fill-opacity="0.5"/>
<path d="M42.6793 7.32072C37.9607 2.60209 31.6733 0 25 0C18.3267 0 12.0393 2.60209 7.32072 7.32072C2.60209 12.0393 0 18.3267 0 25C0 31.6733 2.60209 37.9607 7.32072 42.6793C12.0393 47.3979 18.3267 50 25 50C31.6733 50 37.9607 47.3979 42.6793 42.6793C47.3979 37.9607 50 31.6733 50 25C50 18.3267 47.3979 12.0393 42.6793 7.32072ZM47.9955 24.502C47.0369 23.2943 46.0159 22.1116 44.9577 20.9537C44.995 20.8541 45.0199 20.7545 45.0199 20.6424C45.1195 15.5752 41.4592 10.0224 38.496 6.3745C44.1235 10.4706 47.8461 17.0568 47.9955 24.502ZM33.2669 3.53586C33.3167 3.63546 33.379 3.73506 33.4661 3.80976C33.5533 3.89691 41.7206 11.7779 42.8785 18.8247C41.2724 17.2311 39.5792 15.7246 37.8611 14.3551C37.8486 14.3426 37.8486 14.3426 37.8362 14.3426C36.8401 12.4128 35.6076 10.5453 34.1882 8.78984C33.4288 7.85608 32.6195 6.94721 31.7605 6.1006C30.9263 5.26643 30.0423 4.46962 29.121 3.72261C28.4238 3.1499 27.7017 2.61454 26.9547 2.10408C29.1708 2.26594 31.2874 2.76394 33.2669 3.53586ZM33.0553 10.5329C34.0388 11.8028 34.9228 13.1225 35.6823 14.492C34.1384 15.0274 32.632 15.6624 31.1753 16.3845C29.6688 17.1315 28.0627 17.9532 26.7306 19.0115C23.4562 21.2525 20.7296 23.9915 18.2395 27.0418C16.3845 29.4447 14.8282 32.0717 13.6081 34.8481C12.2136 33.989 10.869 33.0179 9.58665 31.9223C13.6081 21.489 22.3108 13.5583 33.0553 10.5329ZM8.00548 30.4905C7.89343 30.3785 7.79382 30.2789 7.68177 30.1668C6.62351 29.1086 5.62749 27.9631 4.73108 26.7804C8.80229 16.4094 17.5423 8.52839 28.262 5.56524C28.9841 6.1753 29.6937 6.82271 30.366 7.49502C30.8142 7.94323 31.25 8.40388 31.6733 8.87699C26.4069 10.4955 21.5015 13.2968 17.4178 17.0319C13.3342 20.7669 10.0971 25.386 8.00548 30.4905ZM23.1574 2.06673C24.2405 2.65189 25.2988 3.3242 26.3322 4.05876C16.0732 7.34562 7.68177 14.9402 3.38645 24.8381C2.9258 24.1285 2.50249 23.3939 2.11653 22.6718C3.2246 11.6783 12.1016 2.9507 23.1574 2.06673ZM3.51096 32.9806C3.47361 32.9432 3.4238 32.8934 3.374 32.8685C2.63944 30.8391 2.17878 28.6728 2.04183 26.4318C2.29084 26.8053 2.53984 27.1663 2.81374 27.5274C3.85956 28.9467 5.02988 30.3162 6.28735 31.5862C6.76046 32.0593 7.24602 32.5199 7.75647 32.9681C9.53685 34.5618 11.4542 35.9437 13.4587 37.0767C14.8282 38.8695 16.3347 40.6126 17.9407 42.2933C11.0433 40.7744 3.58566 33.0677 3.51096 32.9806ZM5.95119 37.8984C9.53685 40.8367 15.0523 44.5344 20.132 44.5344C20.1444 44.5344 20.1693 44.5344 20.1818 44.5344C21.4641 45.7545 22.7963 46.9123 24.1534 47.9955C16.5837 47.7092 9.94771 43.7749 5.95119 37.8984ZM32.9183 46.6011C32.7565 46.6633 32.5946 46.7131 32.4203 46.7754C32.4079 46.7754 32.4079 46.7754 32.3954 46.7878C30.7395 47.3481 29.0214 47.7216 27.2784 47.8959C24.8755 46.128 22.5349 44.1111 20.3312 41.9074C18.4885 40.0647 16.7704 38.1225 15.2141 36.118C15.2266 36.1056 15.2266 36.0807 15.239 36.0682C16.3347 33.4786 17.7415 31.0383 19.4223 28.7724C21.5513 31.1628 23.8421 33.5906 26.245 35.9935C29.5692 39.3177 32.8934 42.3929 36.118 45.132C35.1096 45.6922 34.0388 46.1902 32.9183 46.6011ZM42.9034 36.9273C43.2395 37.3257 43.5757 37.7117 43.8994 38.0976C42.2809 40.4133 40.2515 42.4303 37.9233 44.0239C34.6116 41.2475 31.0757 37.9856 27.6643 34.5867C25.1992 32.1215 22.8461 29.619 20.6673 27.1663C22.5971 24.8506 24.8132 22.7963 27.2659 21.0408C29.6439 23.1574 32.0468 25.4358 34.4373 27.8137C36.9273 30.3038 39.3426 32.8685 41.5463 35.3586L42.9034 36.9273ZM42.5672 33.5159C40.4756 31.1753 38.2221 28.7973 35.8441 26.4069C33.5657 24.1285 31.2624 21.9497 28.9841 19.9079C31.4741 18.3267 34.1509 17.0817 36.9522 16.1728C36.9522 16.1728 36.9522 16.1728 36.9646 16.1728C38.6081 17.505 40.2266 18.9617 41.758 20.5055C44.0115 22.759 46.0657 25.1494 47.8586 27.6145C47.4975 30.7644 46.5139 33.7151 45.0199 36.3546C44.6838 35.9562 44.3352 35.5453 43.9866 35.1469L42.5672 33.5159Z" fill="#4546A3" fill-opacity="0.5"/>
<path d="M17.7291 27.6768C17.7291 27.6892 17.7167 27.6892 17.7291 27.6768C17.7167 27.6892 17.7291 27.6892 17.7291 27.6768Z" fill="#4546A3" fill-opacity="0.5"/>
<path d="M17.7166 27.6892C17.7042 27.7016 17.7042 27.7016 17.7166 27.6892V27.6892Z" fill="#4546A3" fill-opacity="0.5"/>
</svg>
