<svg width="47" height="50" viewBox="0 0 47 50" fill="none" xmlns="http://www.w3.org/2000/svg">
<g clip-path="url(#clip0)">
<path d="M44.2165 39.8789H19.9785C23.8667 37.7101 30.0313 35.9711 34.6913 35.3166C34.9648 35.2775 35.1895 35.1017 35.297 34.8477C37.7296 29.1521 38.9605 23.095 38.9605 16.8523C38.9605 12.1142 38.2376 7.44438 36.821 2.96997C36.7429 2.72574 36.5573 2.54012 36.313 2.46196C33.685 1.63156 29.9433 0.742539 26.0356 0.00983107C25.7425 -0.0487856 25.4299 0.0782171 25.254 0.322453C16.9695 11.909 12.583 25.5862 12.5635 39.8692H2.40328C1.07464 39.8692 0 40.9536 0 42.2724C0 43.6011 1.08441 44.6757 2.40328 44.6757H32.6397C32.8253 46.0239 33.4896 47.2744 34.5741 48.2416C35.8343 49.3748 37.5049 50.0001 39.2732 50.0001C40.1817 50.0001 41.0512 49.834 41.8816 49.5214C42.4091 49.3162 42.7608 48.9254 42.8488 48.4467C42.9269 47.9778 42.7413 47.4991 42.331 47.1376C41.5494 46.4635 41.0512 45.6038 40.8753 44.6757H44.2165C45.5451 44.6757 46.6198 43.5913 46.6198 42.2724C46.6295 40.9536 45.5451 39.8789 44.2165 39.8789ZM34.027 33.8316C31.018 34.2908 27.7354 35.1017 24.746 36.1275C22.4111 36.9285 19.236 38.2181 17.1258 39.8789H16.6081C16.6081 35.8344 16.9793 31.8387 17.6925 27.9211H36.0102C35.4924 29.9336 34.8281 31.9071 34.027 33.8316ZM36.3814 26.358H18.0051C18.4154 24.3846 18.9136 22.4307 19.4998 20.5061H37.2607C37.0946 22.4893 36.8015 24.4334 36.3814 26.358ZM37.3974 16.8523C37.3974 17.5557 37.3779 18.2494 37.3486 18.9528H19.9883C20.6428 16.9696 21.3951 15.0157 22.245 13.1009H37.2411C37.3486 14.3416 37.3974 15.5921 37.3974 16.8523ZM35.4533 3.82968C36.2251 6.34043 36.7624 8.91956 37.075 11.5378H22.9582C24.5115 8.26501 26.3286 5.09971 28.4193 2.08095C31.0668 2.63781 33.5678 3.25329 35.4533 3.82968ZM26.2407 1.64133C26.4166 1.67064 26.5827 1.70971 26.7585 1.73902C19.109 13.013 15.0645 26.1724 15.0547 39.8789H14.1364C14.1462 26.0845 18.3372 12.8762 26.2407 1.64133ZM41.1 48.1536C40.5139 48.3588 39.8984 48.4565 39.2634 48.4565C37.8761 48.4565 36.5866 47.9778 35.6096 47.0985C34.8671 46.4342 34.3884 45.594 34.2126 44.6953H39.2732C39.4588 45.9946 40.084 47.206 41.1 48.1536ZM44.2165 43.1321H2.40328C1.93435 43.1321 1.55334 42.7511 1.55334 42.2822C1.55334 41.8133 1.93435 41.4323 2.40328 41.4323H44.2165C44.6854 41.4323 45.0664 41.8133 45.0664 42.2822C45.0664 42.7511 44.6854 43.1321 44.2165 43.1321Z" fill="#4546A3" fill-opacity="0.5"/>
</g>
<defs>
<clipPath id="clip0">
<rect width="46.6198" height="50" fill="white"/>
</clipPath>
</defs>
</svg>
